<svg xmlns="http://www.w3.org/2000/svg" width="128" height="128" fill="none" xmlns:v="https://vecta.io/nano"><path d="M64 128c35.346 0 64-28.654 64-64S99.346 0 64 0 0 28.654 0 64s28.654 64 64 64z" fill="#f0b90b"/><path d="M44.579 56.021L64 36.6l19.43 19.429 11.3-11.3L64 14 33.28 44.72l11.3 11.3v.001zM14 64l11.3-11.302 11.3 11.3-11.3 11.3L14 64zm30.579 7.98L64 91.4l19.43-19.429 11.306 11.294-.006.006L64 114 33.28 83.28l-.016-.016L44.58 71.979l-.001.001zM91.4 64.005l11.3-11.3 11.3 11.3-11.3 11.3-11.3-11.3zm-15.939-.011h.005L64 52.528 55.525 61l-.974.974-2.008 2.008-.016.016.016.016L64 75.472l11.466-11.466.006-.006-.01-.006" fill="#fff"/></svg>