<svg class="animated" id="freepik_stories-bitcoin" xmlns="http://www.w3.org/2000/svg" xmlns:xlink="http://www.w3.org/1999/xlink" viewBox="0 0 500 500" version="1.1" xmlns:svgjs="http://svgjs.com/svgjs"><style>svg#freepik_stories-bitcoin:not(.animated) .animable {opacity: 0;}svg#freepik_stories-bitcoin.animated #freepik--Coin--inject-45 {animation: 3s Infinite  linear floating;animation-delay: 0s;}            @keyframes floating {                0% {                    opacity: 1;                    transform: translateY(0px);                }                50% {                    transform: translateY(-10px);                }                100% {                    opacity: 1;                    transform: translateY(0px);                }            }        </style><g id="freepik--Floor--inject-45" class="animable" style="transform-origin: 254px 352.65px;"><ellipse id="freepik--floor--inject-45" cx="254" cy="352.65" rx="222.46" ry="128.44" style="fill: rgb(245, 245, 245); transform-origin: 254px 352.65px;" class="animable"></ellipse></g><g id="freepik--Shadow--inject-45" class="animable" style="transform-origin: 254.026px 349.231px;"><path id="freepik--shadow--inject-45" d="M240.07,458.12,442.64,341.17c2.39-1.38,2.39-3.62,0-5l-166-95.85a9.57,9.57,0,0,0-8.66,0l-202.56,117c-2.4,1.38-2.4,3.62,0,5l166,95.85A9.57,9.57,0,0,0,240.07,458.12Z" style="fill: rgb(224, 224, 224); transform-origin: 254.026px 349.231px;" class="animable"></path></g><g id="freepik--Plants--inject-45" class="animable" style="transform-origin: 240.618px 300.839px;"><g id="freepik--plants--inject-45" class="animable" style="transform-origin: 57.8734px 319.099px;"><path d="M79.76,322.79c-.67-8.33-4.48-22-14.17-35-10.36-13.93-23-22.65-32.38-18.57-8.74,3.8-5.43,15.86,9.62,27.76,10.55,8.36,21.5,19.22,27.38,32.35L79.76,346Z" style="fill: rgb(186, 104, 200); transform-origin: 54.1003px 307.106px;" id="el3tgrcfq7u9b" class="animable"></path><g id="elveidjlt1xee"><g style="opacity: 0.2; transform-origin: 54.1003px 307.106px;" class="animable"><path d="M79.76,322.79c-.67-8.33-4.48-22-14.17-35-10.36-13.93-23-22.65-32.38-18.57-8.74,3.8-5.43,15.86,9.62,27.76,10.55,8.36,21.5,19.22,27.38,32.35L79.76,346Z" id="elqaonalyh8ul" class="animable" style="transform-origin: 54.1003px 307.106px;"></path></g></g><path d="M78.92,329.14a.59.59,0,0,1-.56-.39C70,305.66,52.51,282.29,37.74,274.4a.6.6,0,0,1-.25-.8.61.61,0,0,1,.81-.25c15,8,32.7,31.66,41.17,55a.59.59,0,0,1-.35.76A.51.51,0,0,1,78.92,329.14Z" style="fill: rgb(255, 255, 255); transform-origin: 58.466px 301.212px;" id="elyz980h4nme" class="animable"></path><path d="M83.41,362.49a35.21,35.21,0,0,1-16.71,7.16c-10.53,1.66-15.18-3.37-15.18-3.37s4.15-9.88,10.13-12.65c0,0-10.14,2.07-18.27,7.5,0,0-6.43.1-9-9.72,0,0,3.81-5.9,16.59-9.09,0,0-7.78-2-19,.9-.84.33-4.42-12.35-5.51-18.2s1.27-5.8,5.83-7,20.1-2,23,.52,4.31,11.09,4.31,11.09a41.91,41.91,0,0,0,.29-10.34,34.32,34.32,0,0,1,11.49,1.38c5.13,1.79,4.8,4.29,4.8,8a39.54,39.54,0,0,1-1.53,11.11s3.54-3.07,3.66-14.36c0,0,6.93,5.93,9.71,11S90.09,354.89,83.41,362.49Z" style="fill: rgb(186, 104, 200); transform-origin: 57.8734px 343.435px;" id="eltsrjls4gt9" class="animable"></path><path d="M83.41,363.08a.69.69,0,0,1-.54-.33c-12.12-17.44-40.08-38.16-51.39-40.36a.61.61,0,0,1-.47-.7.6.6,0,0,1,.69-.47c11.5,2.24,40.29,22.56,52.24,41a.56.56,0,0,1-.28.79A.57.57,0,0,1,83.41,363.08Z" style="fill: rgb(255, 255, 255); transform-origin: 57.5055px 342.146px;" id="el3q8yvhn9q3q" class="animable"></path></g><g id="freepik--plants--inject-45" class="animable" style="transform-origin: 428.664px 280.238px;"><path d="M413.21,314.62l-8.71-5s-4.18-23-1.05-42.82c4.39-27.82,23.33-37.42,30.21-34.65s8.5,11-3.93,27.08C422.4,268.75,413,288.8,413.21,314.62Z" style="fill: rgb(186, 104, 200); transform-origin: 420.625px 273.156px;" id="elwq0yzckrt5e" class="animable"></path><g id="eltlizxqud1x"><g style="opacity: 0.2; transform-origin: 420.625px 273.156px;" class="animable"><path d="M413.21,314.62l-8.71-5s-4.18-23-1.05-42.82c4.39-27.82,23.33-37.42,30.21-34.65s8.5,11-3.93,27.08C422.4,268.75,413,288.8,413.21,314.62Z" id="eln7bz5k0pvi" class="animable" style="transform-origin: 420.625px 273.156px;"></path></g></g><path d="M410.05,303.57h.09a.63.63,0,0,0,.53-.7c-3.6-26.05,6.87-54.59,18.64-66.09a.62.62,0,0,0-.87-.89c-12,11.71-22.66,40.71-19,67.15A.61.61,0,0,0,410.05,303.57Z" style="fill: rgb(255, 255, 255); transform-origin: 419.103px 269.641px;" id="elipcng2fyt4k" class="animable"></path><path d="M437.38,328.58c1.37.79,4.21-.93,5.29-1.66a13.15,13.15,0,0,0,4.37-5,12.29,12.29,0,0,0,1.1-7.39,29.93,29.93,0,0,0-.94-3.93c-.36-1.27-.73-2.54-1.1-3.82a9.56,9.56,0,0,1-.55-3.84c.33-2.61,2.65-4.44,4.75-6,2.33-1.74,4.75-4,4.74-7.19a11,11,0,0,0-2.77-6.57c-1.5-1.91-3.28-3.59-4.64-5.59a7.72,7.72,0,0,1-1.58-4.89,8.23,8.23,0,0,1,1.06-3.05c1.11-2,2.58-3.92,3.34-6.11s.66-4.93-1.06-6.51c-1.41-1.29-3.5-1.47-5.4-1.34a12.38,12.38,0,0,0-5,1.77c-5,2.77-7.83,8.68-13.13,10.81-2,.83-4.28,1-6.4,1.57s-4.3,1.65-5.29,3.62c-1.94,3.88,1.67,8.66.3,12.78-1.21,3.64-4.75,5-6.74,8.32a7.8,7.8,0,0,0-.93,4.77,22.91,22.91,0,0,0,2,8.07,58.16,58.16,0,0,0,4.43,7.26C413.29,314.7,437.16,328.46,437.38,328.58Z" style="fill: rgb(186, 104, 200); transform-origin: 430.89px 292.219px;" id="elueri1hpygy" class="animable"></path><path d="M423.24,321.05h0a.63.63,0,0,0,.61-.65c-1-24.65,10.59-51.87,19-59.78a.62.62,0,0,0-.85-.91c-8.62,8.07-20.47,35.74-19.44,60.74A.63.63,0,0,0,423.24,321.05Z" style="fill: rgb(255, 255, 255); transform-origin: 432.772px 290.297px;" id="el6gpd1eess0d" class="animable"></path><path d="M426.93,291.92a.57.57,0,0,0,.18,0A82.91,82.91,0,0,1,445,289a.63.63,0,0,0,.59-.65.59.59,0,0,0-.65-.59,84.22,84.22,0,0,0-18.2,2.94.62.62,0,0,0-.41.77A.61.61,0,0,0,426.93,291.92Z" style="fill: rgb(255, 255, 255); transform-origin: 435.947px 289.842px;" id="elg4fqchrvcnf" class="animable"></path></g></g><g id="freepik--Device--inject-45" class="animable animator-active" style="transform-origin: 257.007px 250.003px;"><g id="freepik--Laptop--inject-45" class="animable" style="transform-origin: 257.007px 250.003px;"><path d="M82.3,359.19a10.94,10.94,0,0,0,5.1,8.47l143,82.54a11.27,11.27,0,0,0,10.21,0L436.19,337.26a9.58,9.58,0,0,0,0-16.94l-143-82.55a11.31,11.31,0,0,0-10.2,0L87.4,350.71A10.94,10.94,0,0,0,82.3,359.19Z" style="fill: rgb(55, 71, 79); transform-origin: 261.797px 343.989px;" id="elx4n8ny0bfg9" class="animable"></path><path d="M235.47,440.38v11a10.32,10.32,0,0,1-5.1-1.22l-143-82.54A9.55,9.55,0,0,1,86.88,351c-2.29,1.64-2.11,4,.52,5.57l143,82.54A10.43,10.43,0,0,0,235.47,440.38Z" style="fill: rgb(38, 50, 56); transform-origin: 158.871px 401.191px;" id="eltds4na3lbw" class="animable"></path><path d="M77.51,350.9a11,11,0,0,1-4.79-8.66V171.63a11.31,11.31,0,0,1,5.1-8.84L273.44,49.85a11,11,0,0,1,9.89-.18,11,11,0,0,1,4.79,8.66V228.94a11.28,11.28,0,0,1-5.1,8.83L87.4,350.71A11,11,0,0,1,77.51,350.9Z" style="fill: rgb(69, 90, 100); transform-origin: 180.42px 200.283px;" id="elqkb1kec4gna" class="animable"></path><path d="M86.8,351a11,11,0,0,1-9.29-.13,10.93,10.93,0,0,1-4.78-8.65V171.63a10.28,10.28,0,0,1,1.49-5l9.57,5.51h0a10.5,10.5,0,0,0-1.5,5V347.77C82.29,350.79,84.26,352.14,86.8,351Z" style="fill: rgb(38, 50, 56); transform-origin: 79.765px 259.298px;" id="elzjif0etaem" class="animable"></path><path d="M82.3,177.16V347.77c0,3.25,2.28,4.57,5.1,2.94L283,237.77a11.28,11.28,0,0,0,5.1-8.83V58.33c0-3.26-2.29-4.57-5.1-2.95L87.4,168.32A11.27,11.27,0,0,0,82.3,177.16Z" style="fill: rgb(55, 71, 79); transform-origin: 185.2px 203.047px;" id="elfxfw1xx1asa" class="animable"></path><path d="M87.4,356.61l143,82.54a11.33,11.33,0,0,0,10.21,0L436.19,326.21c2.81-1.63,2.81-4.27,0-5.89l-143-82.55a11.31,11.31,0,0,0-10.2,0L87.4,350.71C84.58,352.34,84.58,355,87.4,356.61Z" style="fill: rgb(69, 90, 100); transform-origin: 261.791px 338.46px;" id="elral6qn1j3c" class="animable"></path><path d="M90.14,177.79,278.74,68.93c1.69-1,3.06-.19,3.06,1.77V218.39a6.77,6.77,0,0,1-3.06,5.3L90.14,332.55c-1.69,1-3.06.18-3.06-1.77V183.09A6.77,6.77,0,0,1,90.14,177.79Z" style="fill: rgb(186, 104, 200); transform-origin: 184.44px 200.739px;" id="el8hguf812wlb" class="animable"></path><g id="el8t6gdpe1pws"><path d="M90.14,177.79,278.74,68.93c1.69-1,3.06-.19,3.06,1.77V218.39a6.77,6.77,0,0,1-3.06,5.3L90.14,332.55c-1.69,1-3.06.18-3.06-1.77V183.09A6.77,6.77,0,0,1,90.14,177.79Z" style="fill: rgb(255, 255, 255); opacity: 0.9; transform-origin: 184.44px 200.739px;" class="animable"></path></g><path d="M104,352.19,285.57,247.36a5.59,5.59,0,0,1,5.1,0l9.29,5.36c1.41.81,1.41,2.13,0,2.94L118.36,360.48a5.68,5.68,0,0,1-5.11,0L104,355.13C102.58,354.32,102.58,353,104,352.19Z" style="fill: rgb(55, 71, 79); transform-origin: 201.976px 303.916px;" id="el7huup8sfgnp" class="animable"></path><path d="M127.93,366,308.15,262a5.66,5.66,0,0,1,5.1,0l57.12,33c1.41.82,1.41,2.14,0,3l-180,103.88a5.68,5.68,0,0,1-5.11,0l-57.32-32.85C126.52,368.13,126.52,366.82,127.93,366Z" style="fill: rgb(38, 50, 56); transform-origin: 249.151px 331.94px;" id="el489gdteh8mx" class="animable"></path><path d="M290.69,308.34l5.69-3.28c.24-.14.22-.38,0-.53l-6.57-3.79a1,1,0,0,0-.91,0L283.18,304c-.24.14-.23.37,0,.52l6.57,3.8A1,1,0,0,0,290.69,308.34Zm-11.22-13-5.68,3.28c-.24.14-.23.37,0,.52l6.57,3.8a1,1,0,0,0,.91,0l5.69-3.29c.24-.14.22-.37,0-.52l-6.57-3.8A1,1,0,0,0,279.47,295.3Zm-18.36,10.6-9.63,5.55c-.24.14-.22.38,0,.53l6.57,3.79a1,1,0,0,0,.91,0l9.62-5.55c.24-.14.23-.38,0-.53L262,305.92A1,1,0,0,0,261.11,305.9Zm10.05-5.81-5.68,3.29c-.24.13-.23.37,0,.52l6.57,3.79a1,1,0,0,0,.91,0l5.69-3.28c.24-.14.22-.37,0-.52l-6.57-3.8A1,1,0,0,0,271.16,300.09ZM248.86,313l-5.68,3.28c-.25.14-.23.38,0,.53l6.57,3.79a1,1,0,0,0,.91,0l5.68-3.28c.24-.14.23-.38,0-.53L249.77,313A1,1,0,0,0,248.86,313Zm-8.31,4.8-5.68,3.28c-.24.14-.23.37,0,.52l6.57,3.8a1,1,0,0,0,.91,0l5.68-3.29c.25-.14.23-.37,0-.52l-6.57-3.79A1,1,0,0,0,240.55,317.77Zm25.86,15.43,5.68-3.28c.25-.14.23-.38,0-.53l-6.57-3.79a1,1,0,0,0-.91,0l-5.68,3.28c-.24.14-.23.38,0,.53l6.57,3.79A1,1,0,0,0,266.41,333.2ZM258.1,338l5.69-3.28c.24-.14.22-.38,0-.53l-6.57-3.79a1,1,0,0,0-.91,0l-5.68,3.28c-.24.14-.23.37,0,.52l6.57,3.8A1,1,0,0,0,258.1,338Zm-8.31,4.8,5.69-3.29c.24-.14.22-.37,0-.52l-6.57-3.8a1,1,0,0,0-.91,0l-5.68,3.28c-.24.14-.23.37,0,.52l6.57,3.8A1,1,0,0,0,249.79,342.8Zm-8.31,4.79,5.69-3.28c.24-.14.22-.37,0-.52l-6.58-3.8a1,1,0,0,0-.91,0L234,343.25c-.24.14-.23.38,0,.53l6.58,3.79A1,1,0,0,0,241.48,347.59Zm40.9-34.46,5.69-3.28c.24-.14.22-.37,0-.52l-6.58-3.8a1,1,0,0,0-.9,0l-5.69,3.29c-.24.14-.23.37,0,.52l6.58,3.8A1,1,0,0,0,282.38,313.13Zm-7.66,15.27,12.68-7.32c.24-.14.23-.37,0-.52l-16-9.22a1,1,0,0,0-.9,0l-6.56,3.79c-.24.14-.23.37,0,.52l8.45,4.88c.26.15.27.39,0,.53l-5.24,3c-.25.14-.23.37,0,.52l6.57,3.79A1,1,0,0,0,274.72,328.4Zm-42.48-5.84-5.68,3.29c-.24.14-.23.37,0,.52l6.57,3.8a1,1,0,0,0,.91,0l5.69-3.28c.24-.14.22-.37,0-.52l-6.57-3.8A1,1,0,0,0,232.24,322.56Zm-8.31,4.8-5.68,3.28c-.24.14-.23.38,0,.53l6.57,3.79a1,1,0,0,0,.91,0l5.69-3.28c.24-.14.22-.38,0-.52l-6.57-3.8A1,1,0,0,0,223.93,327.36Zm-41.52,53.79a1,1,0,0,0,.91,0l5.69-3.28c.24-.14.22-.37,0-.52l-6.57-3.8a1,1,0,0,0-.91,0l-5.68,3.28c-.24.14-.23.38,0,.53Zm-24.95-15.41L151.78,369c-.24.14-.23.37,0,.52l6.57,3.8a1,1,0,0,0,.91,0l5.68-3.28c.25-.14.23-.38,0-.53l-6.57-3.79A1,1,0,0,0,157.46,365.74ZM170.84,377a1,1,0,0,0,.9,0l5.69-3.28c.24-.14.22-.37,0-.52l-6.57-3.8a1,1,0,0,0-.91,0l-5.68,3.29c-.24.14-.23.37,0,.52Zm26.24,7.08,5.69-3.28c.24-.14.23-.38,0-.53l-6.58-3.79a1,1,0,0,0-.9,0l-5.69,3.28c-.24.14-.23.38,0,.53l6.58,3.79A1,1,0,0,0,197.08,384.07Zm-9.21,4.78a1,1,0,0,0,.9,0l5.69-3.29c.24-.14.23-.37,0-.52l-6.58-3.79a1,1,0,0,0-.9,0l-5.69,3.28c-.24.14-.23.37,0,.52Zm-22.1-27.91-5.68,3.28c-.25.14-.23.38,0,.53l6.57,3.79a1,1,0,0,0,.91,0l5.68-3.28c.25-.14.23-.37,0-.52l-6.57-3.8A1,1,0,0,0,165.77,360.94Zm41.55-24-5.69,3.28c-.24.14-.23.37,0,.52l6.58,3.8a1,1,0,0,0,.9,0l5.69-3.29c.24-.14.23-.37,0-.52l-6.58-3.8A1,1,0,0,0,207.32,337Zm-33.24,19.18-5.69,3.29c-.24.14-.22.37,0,.52l6.57,3.8a1,1,0,0,0,.91,0l5.68-3.28c.24-.14.23-.37,0-.52l-6.57-3.8A1,1,0,0,0,174.08,356.14Zm41.54-24-5.68,3.28c-.24.14-.23.37,0,.52l6.58,3.8a1,1,0,0,0,.9,0l5.69-3.28c.24-.14.22-.38,0-.53l-6.58-3.79A1,1,0,0,0,215.62,332.16ZM199,341.75,193.32,345c-.24.14-.23.38,0,.53l6.58,3.79a1,1,0,0,0,.91,0l5.68-3.28c.24-.14.23-.37,0-.52l-6.58-3.8A1,1,0,0,0,199,341.75Zm-8.31,4.8L185,349.83c-.24.14-.22.38,0,.53l6.57,3.79a1,1,0,0,0,.91,0l5.68-3.28c.24-.14.23-.38,0-.53l-6.57-3.79A1,1,0,0,0,190.7,346.55Zm-8.31,4.8-5.69,3.28c-.24.14-.22.37,0,.52l6.57,3.8a1,1,0,0,0,.91,0l5.68-3.29c.24-.13.23-.37,0-.52l-6.57-3.79A1,1,0,0,0,182.39,351.35Zm42.47,5.84,5.69-3.29c.24-.13.23-.37,0-.52l-6.58-3.79a1,1,0,0,0-.9,0l-5.69,3.28c-.24.14-.23.37,0,.52l6.58,3.8A1,1,0,0,0,224.86,357.19Zm73-72.5L292.16,288c-.25.14-.23.38,0,.53l6.57,3.79a1,1,0,0,0,.91,0l5.68-3.28c.24-.14.23-.37,0-.52l-6.57-3.8A1,1,0,0,0,297.84,284.69Zm-10.06,5.81-5.68,3.28c-.25.14-.23.37,0,.52l6.57,3.8a1,1,0,0,0,.91,0l5.68-3.28c.25-.14.23-.38,0-.53l-6.57-3.79A1,1,0,0,0,287.78,290.5Zm18.37-10.61-5.69,3.29c-.24.14-.22.37,0,.52l6.57,3.8a1,1,0,0,0,.91,0l5.68-3.28c.24-.14.23-.37,0-.52l-6.57-3.8A1,1,0,0,0,306.15,279.89Zm-43,44.35,5.69-3.28c.24-.14.22-.37,0-.52l-6.57-3.8a1,1,0,0,0-.91,0l-5.68,3.29c-.24.14-.23.37,0,.52l6.57,3.8A1,1,0,0,0,263.14,324.24Zm52.22-49.12a1,1,0,0,0-.9,0l-5.69,3.28c-.24.14-.22.37,0,.52l6.57,3.8a1,1,0,0,0,.91,0l5.68-3.29c.24-.14.23-.37,0-.52Zm-82.19,77.27,5.69-3.28c.24-.14.23-.38,0-.53l-6.58-3.79a1,1,0,0,0-.9,0l-5.69,3.28c-.24.14-.23.38,0,.52l6.58,3.8A1,1,0,0,0,233.17,352.39Zm101.9-58.83,5.68-3.28c.24-.14.23-.38,0-.53L334.15,286a1,1,0,0,0-.91,0l-5.69,3.28c-.24.14-.22.38,0,.53l6.57,3.79A1,1,0,0,0,335.07,293.56Zm-17.7-.62,5.68-3.29c.24-.14.23-.37,0-.52l-6.57-3.8a1,1,0,0,0-.91,0l-5.68,3.28c-.25.14-.23.37,0,.52l6.57,3.8A1,1,0,0,0,317.37,292.94Zm7.39-12.4a1,1,0,0,0-.91,0l-5.69,3.28c-.24.14-.22.38,0,.52l6.57,3.8a1,1,0,0,0,.91,0l5.68-3.28c.24-.14.23-.38,0-.53Zm1.75-1,16,9.21a1,1,0,0,0,.91,0l5.68-3.28c.24-.14.23-.37,0-.52l-16-9.22a1,1,0,0,0-.9,0L326.47,279C326.23,279.14,326.25,279.38,326.51,279.53Zm-19.28,10.58-5.68,3.29c-.25.13-.23.37,0,.52l6.57,3.79a1,1,0,0,0,.91,0l5.68-3.28c.25-.14.23-.37,0-.52l-6.57-3.8A1,1,0,0,0,307.23,290.11ZM244.7,326.22,239,329.5c-.24.14-.23.37,0,.52l6.58,3.8a1,1,0,0,0,.9,0l5.69-3.28c.24-.14.22-.38,0-.53l-6.58-3.79A1,1,0,0,0,244.7,326.22Zm81.15-27.88a1,1,0,0,0,.91,0l5.68-3.28c.25-.14.23-.38,0-.53l-6.57-3.79a1,1,0,0,0-.91,0L319.25,294c-.25.14-.23.37,0,.52ZM253,321.42l-5.68,3.28c-.24.14-.23.38,0,.53l6.58,3.79a1,1,0,0,0,.9,0l5.69-3.28c.24-.14.22-.38,0-.52l-6.57-3.8A1,1,0,0,0,253,321.42Zm-62.28,54.94a1,1,0,0,0,.91,0l5.68-3.29c.25-.14.23-.37,0-.52l-6.57-3.8a1,1,0,0,0-.91,0L184.12,372c-.25.14-.23.37,0,.52Zm-12.5-11.76-5.68,3.28c-.24.14-.23.37,0,.52l6.57,3.8a1,1,0,0,0,.91,0l5.69-3.29c.24-.14.22-.37,0-.52l-6.57-3.8A1,1,0,0,0,178.22,364.6Zm21.72,7,5.68-3.28c.24-.14.23-.38,0-.53L199,364a1,1,0,0,0-.91,0l-5.69,3.28c-.24.14-.22.37,0,.52l6.57,3.8A1,1,0,0,0,199.94,371.58Zm8.31-4.8,5.68-3.28c.24-.14.23-.38,0-.52l-6.57-3.8a1,1,0,0,0-.91,0l-5.69,3.28c-.24.14-.22.38,0,.53l6.57,3.79A1,1,0,0,0,208.25,366.78Zm8.31-4.8,5.68-3.28c.24-.14.23-.37,0-.52l-6.58-3.8a1,1,0,0,0-.9,0L209,357.65c-.24.14-.22.37,0,.52l6.57,3.79A1,1,0,0,0,216.56,362Zm-30-2.18-5.68,3.28c-.24.14-.23.37,0,.52l6.57,3.8a1,1,0,0,0,.91,0l5.69-3.28c.24-.14.22-.38,0-.53l-6.57-3.79A1,1,0,0,0,186.53,359.8Zm8.31-4.8-5.68,3.28c-.25.14-.23.38,0,.53l6.57,3.79a1,1,0,0,0,.91,0l5.68-3.28c.25-.14.23-.37,0-.52l-6.57-3.8A1,1,0,0,0,194.84,355Zm33.24-19.19-5.69,3.28c-.24.14-.23.38,0,.53l6.58,3.79a1,1,0,0,0,.9,0l5.69-3.28c.24-.14.23-.37,0-.52l-6.58-3.8A1,1,0,0,0,228.08,335.81Zm-8.31,4.8-5.69,3.28c-.24.14-.22.38,0,.53l6.57,3.79a1,1,0,0,0,.91,0l5.68-3.28c.24-.14.23-.38,0-.53l-6.58-3.79A1,1,0,0,0,219.77,340.61ZM236.39,331l-5.69,3.28c-.24.14-.23.37,0,.52l6.58,3.8a1,1,0,0,0,.9,0l5.69-3.29c.24-.14.23-.37,0-.52l-6.58-3.8A1,1,0,0,0,236.39,331ZM203.15,350.2l-5.68,3.29c-.25.14-.23.37,0,.52l6.57,3.8a1,1,0,0,0,.91,0l5.68-3.28c.24-.14.23-.37,0-.52l-6.57-3.8A1,1,0,0,0,203.15,350.2Zm8.31-4.79-5.69,3.28c-.24.14-.22.37,0,.52l6.57,3.8a1,1,0,0,0,.91,0l5.68-3.29c.24-.13.23-.37,0-.52l-6.57-3.79A1,1,0,0,0,211.46,345.41Zm-6.07,33.86,5.69-3.28c.24-.14.22-.37,0-.52l-6.58-3.8a1,1,0,0,0-.9,0l-5.69,3.28c-.24.14-.23.38,0,.53l6.58,3.79A1,1,0,0,0,205.39,379.27Zm-48.76-4.92-6.57-3.8a1,1,0,0,0-.91,0l-5.68,3.28c-.24.14-.23.37,0,.52l6.57,3.8a1,1,0,0,0,.91,0l5.69-3.29C156.91,374.73,156.89,374.5,156.63,374.35ZM169.09,378l-6.58-3.79a1,1,0,0,0-.9,0l-8.75,5.05c-.24.14-.23.37,0,.52l6.58,3.8a1,1,0,0,0,.9,0l8.75-5.05C169.36,378.39,169.35,378.15,169.09,378Zm-22.54-11L140,363.22a1,1,0,0,0-.9,0l-7,4c-.24.14-.23.37,0,.52l6.58,3.8a1,1,0,0,0,.9,0l7-4C146.82,367.4,146.81,367.16,146.55,367Zm5.36-3.1a1,1,0,0,0,.91,0l5.68-3.28c.25-.14.23-.37,0-.52l-6.57-3.8a1,1,0,0,0-.91,0l-5.68,3.29c-.25.14-.23.37,0,.52Zm28.75,18.25-6.57-3.79a1,1,0,0,0-.91,0l-10.93,6.31c-.24.14-.23.38,0,.53l6.58,3.79a1,1,0,0,0,.9,0l10.94-6.31C180.94,382.55,180.92,382.31,180.66,382.16Zm5.46,7.7-6.58-3.8a1,1,0,0,0-.9,0l-7,4c-.24.14-.23.38,0,.53l6.58,3.79a1,1,0,0,0,.9,0l7-4C186.39,390.24,186.38,390,186.12,389.86Zm27.57-61.61a1,1,0,0,0,.91,0l5.68-3.29c.24-.14.23-.37,0-.52l-6.57-3.8a1,1,0,0,0-.91,0l-5.69,3.28c-.24.14-.22.37,0,.52Zm-16.62,9.59a1,1,0,0,0,.91,0l5.68-3.28c.25-.14.23-.38,0-.53l-6.57-3.79a1,1,0,0,0-.91,0l-5.68,3.28c-.25.14-.23.38,0,.53Zm-36.85,21.28a1,1,0,0,0,.91,0l5.68-3.29c.24-.14.23-.37,0-.52l-6.57-3.8a1,1,0,0,0-.91,0l-5.69,3.28c-.24.14-.22.37,0,.52ZM205.38,333a1,1,0,0,0,.91,0l5.68-3.28c.24-.14.23-.37,0-.52l-6.57-3.8a1,1,0,0,0-.91,0l-5.68,3.29c-.25.13-.23.37,0,.52Zm-16.62,9.6a1,1,0,0,0,.91,0l5.69-3.28c.24-.14.22-.38,0-.53l-6.57-3.79a1,1,0,0,0-.91,0l-5.68,3.28c-.24.14-.23.37,0,.52Zm1.93,47.84a1,1,0,0,0-.91,0L181,395.51c-.24.14-.22.37,0,.52l6.58,3.79a1,1,0,0,0,.91,0l8.74-5c.24-.14.23-.37,0-.52Zm-13.85-41a1,1,0,0,0,.91,0l5.68-3.28c.24-.14.23-.37,0-.52l-6.57-3.8a1,1,0,0,0-.91,0l-5.69,3.28c-.24.14-.22.38,0,.53Zm-8.31,4.8a1,1,0,0,0,.91,0l5.68-3.28c.24-.14.23-.38,0-.53l-6.57-3.79a1,1,0,0,0-.91,0L161.92,350c-.24.14-.22.38,0,.52ZM344.62,301.6a1,1,0,0,0-.91,0l-14,8.08c-.24.14-.23.38,0,.53l6.58,3.79a1,1,0,0,0,.9,0l14-8.08c.24-.14.22-.37,0-.52Zm-18.37,10.6a1,1,0,0,0-.9,0l-5.69,3.28c-.24.14-.23.37,0,.52l6.58,3.8a1,1,0,0,0,.9,0l5.69-3.29c.24-.14.23-.37,0-.52ZM213.7,374.48l5.69-3.29c.24-.14.22-.37,0-.52l-6.57-3.8a1,1,0,0,0-.91,0l-5.68,3.28c-.24.14-.23.37,0,.52l6.58,3.8A1,1,0,0,0,213.7,374.48Zm95.94-52.68a1,1,0,0,0-.91,0L303,325.06c-.24.14-.22.38,0,.53l6.57,3.79a1,1,0,0,0,.91,0l5.68-3.28c.24-.14.23-.38,0-.53Zm43.29-25a1,1,0,0,0-.91,0l-5.68,3.29c-.24.14-.23.37,0,.52l6.57,3.8a1,1,0,0,0,.91,0l5.69-3.28c.24-.14.22-.37,0-.52Zm14.88-1-16-9.22a1,1,0,0,0-.91,0l-5.68,3.28c-.25.14-.23.37,0,.52l16,9.22a1,1,0,0,0,.91,0l5.68-3.29C368.09,296.19,368.07,296,367.81,295.8Zm-89.22,43.93a1,1,0,0,0-.91,0l-7,4c-.24.14-.23.37,0,.52l6.58,3.8a1,1,0,0,0,.9,0l7-4c.24-.13.23-.37,0-.52Zm21-12.12a1,1,0,0,0-.91,0l-8.75,5.05c-.24.14-.22.37,0,.52l6.57,3.8a1,1,0,0,0,.91,0l8.74-5c.24-.14.23-.38,0-.53Zm-40.24,23.22a1,1,0,0,0-.9,0l-46.8,27c-.24.14-.22.38,0,.53l6.57,3.79a1,1,0,0,0,.91,0l46.79-27c.24-.14.23-.37,0-.52Zm-49.41,28.54a1,1,0,0,0-.91,0l-7,4c-.24.14-.22.37,0,.52l6.57,3.8a1,1,0,0,0,.91,0l7-4c.24-.14.23-.37,0-.52Zm59-34.09a1,1,0,0,0-.9,0l-7,4c-.24.14-.23.38,0,.52l6.58,3.8a1,1,0,0,0,.9,0l7-4c.24-.14.23-.37,0-.52Zm-68.65,39.64a1,1,0,0,0-.91,0l-7,4c-.24.14-.22.38,0,.52l6.58,3.8a1,1,0,0,0,.91,0l7-4c.24-.14.23-.37,0-.52Zm87.9-50.75a1,1,0,0,0-.91,0l-7,4c-.24.14-.22.38,0,.53l6.58,3.79a1,1,0,0,0,.91,0l7-4c.24-.14.23-.37,0-.52ZM317.94,317a1,1,0,0,0-.9,0l-5.69,3.29c-.24.13-.22.37,0,.52l6.58,3.79a1,1,0,0,0,.9,0l5.69-3.28c.24-.14.23-.37,0-.52Zm18.21-13.22,5.68-3.28c.25-.14.23-.38,0-.53l-6.57-3.79a1,1,0,0,0-.91,0l-5.68,3.28c-.24.14-.23.38,0,.53l6.57,3.79A1,1,0,0,0,336.15,303.78ZM299,303.54l5.69-3.28c.24-.14.22-.38,0-.53l-6.57-3.79a1,1,0,0,0-.91,0l-5.68,3.28c-.24.14-.23.38,0,.53l6.57,3.79A1,1,0,0,0,299,303.54ZM280.17,336.1l16.62-9.6c.24-.14.23-.37,0-.52l-6.57-3.8a1,1,0,0,0-.91,0l-16.62,9.59c-.24.14-.23.37,0,.52l6.58,3.8A1,1,0,0,0,280.17,336.1Zm46.76-27.54a1,1,0,0,0,.91,0l5.69-3.29c.24-.13.22-.37,0-.52L326.92,301a1,1,0,0,0-.91,0l-5.68,3.28c-.24.14-.23.37,0,.52Zm-8.48-5.4,5.69-3.29c.24-.14.22-.37,0-.52l-6.57-3.8a1,1,0,0,0-.91,0l-5.68,3.29c-.24.14-.23.37,0,.52l6.57,3.8A1,1,0,0,0,318.45,303.16ZM271.86,340.9l5.69-3.29c.24-.14.23-.37,0-.52l-6.58-3.8a1,1,0,0,0-.9,0l-5.69,3.29c-.24.14-.23.37,0,.52l6.58,3.8A1,1,0,0,0,271.86,340.9Zm36.71-21.74a1,1,0,0,0,.9,0l5.69-3.28c.24-.14.23-.38,0-.52l-6.58-3.8a1,1,0,0,0-.9,0L302,314.84c-.24.14-.23.38,0,.53Zm-78.25,45.72L236,361.6c.24-.14.22-.38,0-.53l-6.57-3.79a1,1,0,0,0-.91,0l-5.68,3.28c-.24.14-.23.38,0,.53l6.57,3.79A1,1,0,0,0,230.32,364.88Zm8.31-4.8,5.68-3.28c.25-.14.23-.37,0-.52l-6.57-3.8a1,1,0,0,0-.91,0l-5.68,3.29c-.25.14-.23.37,0,.52l6.57,3.79A1,1,0,0,0,238.63,360.08ZM222,369.68l5.69-3.28c.24-.14.22-.38,0-.53l-6.57-3.79a1,1,0,0,0-.91,0l-5.68,3.28c-.24.14-.23.37,0,.52l6.57,3.8A1,1,0,0,0,222,369.68Zm33.24-19.19,5.68-3.28c.24-.14.23-.38,0-.53l-6.57-3.79a1,1,0,0,0-.91,0l-5.69,3.28c-.24.14-.22.38,0,.52l6.57,3.8A1,1,0,0,0,255.25,350.49Zm-8.31,4.8,5.68-3.29c.24-.14.23-.37,0-.52L246,347.69a1,1,0,0,0-.91,0L239.42,351c-.24.14-.22.37,0,.52l6.57,3.8A1,1,0,0,0,246.94,355.29Zm16.62-9.6,5.68-3.28c.24-.14.23-.37,0-.52l-6.58-3.8a1,1,0,0,0-.9,0L256,341.35c-.24.14-.22.38,0,.53l6.57,3.79A1,1,0,0,0,263.56,345.69Zm38-71a1,1,0,0,0,.91,0l5.68-3.28c.24-.14.23-.37,0-.52l-1.75-1a1,1,0,0,0-.91,0l-5.68,3.28c-.24.14-.23.37,0,.52Zm-40.88,26.38a1,1,0,0,0,.9,0l5.69-3.28c.24-.14.23-.37,0-.52l-6.58-3.8a1,1,0,0,0-.9,0l-5.69,3.28c-.24.14-.23.38,0,.53Zm16.62-9.59a1,1,0,0,0,.9,0l5.69-3.28c.24-.14.22-.38,0-.53l-6.57-3.79a1,1,0,0,0-.91,0l-5.68,3.28c-.24.14-.23.37,0,.52ZM250.54,307a1,1,0,0,0,.91,0l5.68-3.28c.24-.14.23-.38,0-.53l-6.57-3.79a1,1,0,0,0-.91,0l-5.68,3.28c-.25.14-.23.38,0,.53ZM269,296.32a1,1,0,0,0,.9,0l5.69-3.29c.24-.14.23-.37,0-.52l-6.58-3.8a1,1,0,0,0-.9,0L262.39,292c-.24.14-.23.37,0,.52Zm-35.08,20.25a1,1,0,0,0,.91,0l5.69-3.28c.24-.14.22-.37,0-.52l-6.57-3.8a1,1,0,0,0-.91,0l-5.68,3.29c-.24.14-.23.37,0,.52Zm8.31-4.8a1,1,0,0,0,.91,0l5.68-3.29c.25-.13.23-.37,0-.52l-6.57-3.79a1,1,0,0,0-.91,0l-5.68,3.28c-.25.14-.23.37,0,.52ZM285,284.32a1,1,0,0,0,.91,0l5.68-3.28c.24-.14.23-.38,0-.53l-1.75-1a1,1,0,0,0-.91,0l-5.68,3.29c-.24.14-.23.37,0,.52Zm24.93-14.39a1,1,0,0,0,.91,0l5.68-3.29c.24-.14.23-.37,0-.52l-1.75-1a1,1,0,0,0-.91,0l-5.68,3.28c-.25.14-.23.38,0,.53Zm13.81,8a1,1,0,0,0,.9,0l5.69-3.28c.24-.14.23-.38,0-.53l-6.58-3.79a1,1,0,0,0-.9,0l-5.69,3.28c-.24.14-.23.38,0,.53ZM344.46,299l5.68-3.28c.25-.14.23-.37,0-.52l-6.57-3.8a1,1,0,0,0-.91,0L337,294.64c-.25.14-.23.38,0,.53l6.57,3.79A1,1,0,0,0,344.46,299Zm-51.2-19.46a1,1,0,0,0,.91,0l5.68-3.28c.24-.14.23-.38,0-.53l-1.75-1a1,1,0,0,0-.91,0L291.48,278c-.24.14-.23.37,0,.52Zm-67.65,41.84a1,1,0,0,0,.91,0l5.69-3.28c.24-.14.22-.37,0-.52l-6.57-3.8a1,1,0,0,0-.91,0L219,317c-.24.14-.23.38,0,.53Z" style="fill: rgb(69, 90, 100); transform-origin: 249.968px 332.47px;" id="el3oa903vz45r" class="animable"></path><path d="M262.46,371.24l56.1-32.39a6.76,6.76,0,0,1,6.13,0l32.17,18.57c1.69,1,1.69,2.56,0,3.53l-56.11,32.4a6.8,6.8,0,0,1-6.12,0l-32.17-18.58C260.77,373.8,260.77,372.21,262.46,371.24Z" style="fill: rgb(38, 50, 56); transform-origin: 309.66px 366.096px;" id="elx8oi7byzq7" class="animable"></path></g></g><g id="freepik--Hand--inject-45" class="animable" style="transform-origin: 268.315px 250.946px;"><path d="M231.2,199.19,240,183.87l-32.89-19.1,0,0,0,0h0c-5.51-3.15-13.11-2.68-21.5,2.17C168.67,176.62,155,200.26,155,219.71c0,9.74,3.42,16.58,9,19.75h0l33.16,19.25,9-15.74C219.05,233,229.21,215.31,231.2,199.19Z" style="fill: rgb(69, 90, 100); transform-origin: 197.5px 210.741px;" id="ellxneqmyg0rg" class="animable"></path><path d="M218.61,186.12c-16.84,9.72-30.49,33.36-30.49,52.81s13.65,27.32,30.49,17.6,30.49-33.37,30.49-52.81S235.45,176.39,218.61,186.12Z" style="fill: rgb(38, 50, 56); transform-origin: 218.61px 221.324px;" id="elmxaxjaiq81" class="animable"></path><path d="M249.59,209l8.3-14.52L241.47,185l0,0,0,0h0c-5.22-3-12.43-2.55-20.38,2.05-16,9.21-28.89,31.61-28.89,50,0,9.23,3.25,15.71,8.49,18.72h0l16.68,9.63,8.53-14.92C238.07,241.1,247.7,224.3,249.59,209Z" style="fill: rgb(245, 245, 245); transform-origin: 225.045px 224.249px;" id="elfnvjaveuh7g" class="animable"></path><path d="M193.06,228.17a46,46,0,0,0-.92,8.92c0,9.23,3.25,15.71,8.49,18.72h0l16.68,9.63,8.53-14.92c.83-.63,1.64-1.31,2.45-2Z" style="fill: rgb(235, 235, 235); transform-origin: 210.215px 246.805px;" id="elkalt7wccthg" class="animable"></path><path d="M237.65,196.64c-16,9.22-28.89,31.62-28.89,50.05s12.94,25.89,28.89,16.68,28.9-31.62,28.9-50S253.61,187.43,237.65,196.64Z" style="fill: rgb(224, 224, 224); transform-origin: 237.655px 230.015px;" id="el77y3j5al9mh" class="animable"></path><path d="M379.6,311.59c-3.51,2.59-11.32.53-11.81.41.38.16,6.46,3,8,9.08.56,2.29-1.23,5-2.86,6.11-5.39,3.69-13.35-.12-17.66-2.46a16.28,16.28,0,0,1,3.91,6c.78,2.58.32,5.42-1.72,6.75-4.39,2.86-10.42,3.09-29.95-8.62a7.5,7.5,0,0,1,1.35,3.52,1.62,1.62,0,0,1,0,.31,3.89,3.89,0,0,1-.41,1.77,3.83,3.83,0,0,1-.59.85,6.45,6.45,0,0,1-2.7,1.67c-6.62,2.41-24.33-9-36.34-16.51s-29-19.64-37.39-27.41c-12.3-11.37-10.4-16.75-22.28-26.22a100,100,0,0,0-11.23-7.63c-.35-.16-4.67-2.84-8.33-5.14a31.54,31.54,0,0,1-.81-7.36,36,36,0,0,1,.24-4.24c1.74-17.49,13.9-37.29,28.65-45.8a31.28,31.28,0,0,1,7.74-3.26c3.87,2.45,9.28,5.87,9.64,6.11a58,58,0,0,0,10.58,5.92c1.8.75,3.55,1.37,5.36,1.94,5.37,1.7,23.17,5.81,33.31,9.56s19.48,8,23.38,10.49S342.18,243,349.4,248.46s8,9.8,1.74,11-15.36.89-23-4.8-10.07-7.67-12.69-7.49,3.14,5.23,6.6,8.45a65.58,65.58,0,0,1,6.3,7.21A53.92,53.92,0,0,0,334,269c4.06,3.79,10.93,9.85,17.41,13.84,10.06,6.2,21.73,12.7,26,16.66S383.23,308.92,379.6,311.59Z" style="fill: rgb(255, 168, 167); transform-origin: 295.204px 266.265px;" id="elj7imn7m0nl" class="animable"></path><path d="M378.37,308.52c-2.44,1.41-5.81.89-11.33-1.08s-18.84-8.9-23.7-11.71c-2.77-1.59-13.55-7.89-22.32-13a.52.52,0,0,0-.56.88c7.69,5.27,17.12,11.67,21.31,14.25,9.38,5.78,17.15,9.6,26,14.15,0,0,8.2,2.27,11.83-.4,2.34-1.73,2.5-4.62,1.18-7.52A5.43,5.43,0,0,1,378.37,308.52Z" style="fill: rgb(242, 143, 143); transform-origin: 350.915px 297.78px;" id="el13z7zfy4nmar" class="animable"></path><path d="M371.74,325.13c-4.48,1.28-12-2.58-15-4.12s-23.81-12.71-27.29-14.8l-20-12a1,1,0,0,0-1.13,1.76c10.27,7,22.65,13.87,28.62,17.18a155.1,155.1,0,0,1,18.26,11.59c4.31,2.34,12.27,6.16,17.66,2.46,1.64-1.11,3.42-3.82,2.86-6.11C375.75,321.08,375.67,324,371.74,325.13Z" style="fill: rgb(242, 143, 143); transform-origin: 341.833px 311.394px;" id="ely6hfbwleop9" class="animable"></path><path d="M357.42,337.46c1.84-1.2,2.39-3.64,1.9-6a4,4,0,0,1-3.55,3.85c-3.53.56-6.72-.26-11-1.77s-17.56-9.89-21.82-12.23c-2.66-1.46-18.14-11.16-29.41-18.25-.69-.44-.82.52-.14,1,8.36,5.53,12.92,8.86,16.71,11.52,7.06,4.95,13.88,9.3,17.33,13.28C347,340.55,353,340.32,357.42,337.46Z" style="fill: rgb(242, 143, 143); transform-origin: 326.221px 321.024px;" id="elaw1mt4ai9v5" class="animable"></path><path d="M328.84,332.67a3.89,3.89,0,0,1-.41,1.77,3.83,3.83,0,0,1-.59.85,6.45,6.45,0,0,1-2.7,1.67c-6.62,2.41-24.33-9-36.34-16.51s-29-19.64-37.39-27.41c-12.3-11.37-10.4-16.75-22.28-26.22a100,100,0,0,0-11.23-7.63c-.35-.16-4.67-2.84-8.33-5.14a31.54,31.54,0,0,1-.81-7.36,36,36,0,0,1,.24-4.24c11.46,7.1,25.42,15,29.93,19.4.16.16.31.3.45.45,5.83,5.81,8,11.78,12,21.14,4.16,9.6,20.78,19.78,37.4,31.49s27.91,18.29,33.25,19.83a9,9,0,0,0,2.56.4,4,4,0,0,0,4.21-2.8,0,0,0,0,0,0,0C328.84,332.44,328.84,332.56,328.84,332.67Z" style="fill: rgb(242, 143, 143); transform-origin: 268.8px 289.869px;" id="elwf12jstyq3d" class="animable"></path><path d="M247.86,195l-2.47-1.56a31.28,31.28,0,0,0-7.74,3.26C222.9,205.16,210.74,225,209,242.45a36,36,0,0,0-.24,4.24,31.54,31.54,0,0,0,.81,7.36c3.66,2.3,8,5,8.33,5.14,1.41.85,2.71,1.66,3.93,2.44.22-3.49.41-7.16.54-11C223.84,207.34,247.86,195,247.86,195Z" style="fill: rgb(242, 143, 143); transform-origin: 228.309px 227.535px;" id="elbikvl89eu9d" class="animable"></path><g id="eliksfrnepg8"><path d="M322.05,255.61c-3.47-3.23-9.21-8.26-6.59-8.45-5.87.29-12.38,7.31-28.61,8.62s-31.29-5.93-31.29-5.93,14.55,8.4,16.62,21.6c1.24,7.85-1.16,15.72,6.94,16,8.39.29,16.09-3.9,25.82-18.12,7.89-11.53,18.43-11.62,24.59-5.05-.3-.41-.76-.92-1.18-1.46A65.58,65.58,0,0,0,322.05,255.61Z" style="fill: rgb(242, 143, 143); opacity: 0.5; transform-origin: 292.545px 267.312px;" class="animable"></path></g><path d="M326.21,273.85c-4.21,7.88-22.77,27.64-41.06,31.48a40.49,40.49,0,0,0,26-9.6C323.65,285.34,326.21,273.85,326.21,273.85Z" style="fill: rgb(242, 143, 143); transform-origin: 305.68px 289.59px;" id="elcv8i8j45c" class="animable"></path></g><g id="freepik--Coin--inject-45" class="animable" style="transform-origin: 309.555px 197.925px;"><path d="M346.67,142.49l3.55-7.42-16.91-9.76v0a24.18,24.18,0,0,0-5.86-2.46c-.71-.19-1.44-.35-2.17-.48a29,29,0,0,0-10.94.3,35.67,35.67,0,0,0-3.95,1.06,41.48,41.48,0,0,0-4.08,1.57,49,49,0,0,0-5.23,2.68,63.12,63.12,0,0,0-5.46,3.58q-2,1.49-4,3.15C272.32,151,257.14,180.06,253.29,208q-.4,2.85-.63,5.68c-.23,2.7-.34,5.38-.33,8,0,2.17.09,4.27.26,6.29.14,1.75.34,3.45.59,5.09s.56,3.2.91,4.72h0a45.88,45.88,0,0,0,4.52,12c.41.75.85,1.47,1.3,2.16a29,29,0,0,0,6.88,7.44,25.62,25.62,0,0,0,2.54,1.65v0l16.06,9.26,3.25-6.79c.87-.19,1.74-.41,2.62-.68a47.77,47.77,0,0,0,10.23-4.53,65,65,0,0,0,6-4,77.87,77.87,0,0,0,7.38-6.29c16.11-15.5,28.79-39.75,33.43-63.89a105.36,105.36,0,0,0,1.53-10.71c.26-3,.4-5.9.39-8.8a75.83,75.83,0,0,0-1-12.48A54.67,54.67,0,0,0,346.67,142.49Z" style="fill: rgb(186, 104, 200); transform-origin: 301.275px 196.139px;" id="el69jr2wqdfr" class="animable"></path><g id="elwel55azqpr"><path d="M256.83,191.47l32.9,19,4.16-12-32.94-19C259.39,183.39,258,187.41,256.83,191.47Z" style="fill: rgb(255, 255, 255); opacity: 0.25; transform-origin: 275.36px 194.97px;" class="animable"></path></g><g id="el6ekh7jwkjmd"><path d="M333.31,125.31v0a24.18,24.18,0,0,0-5.86-2.46c-.71-.19-1.44-.35-2.17-.48a29,29,0,0,0-10.94.3c-.48.1-1,.22-1.45.35l33.81,19.52a.31.31,0,0,1,0-.08l3.55-7.42Z" style="fill: rgb(255, 255, 255); opacity: 0.25; transform-origin: 331.57px 132.264px;" class="animable"></path></g><g id="elygj15y1j2sf"><path d="M331.29,172.16l4.16-5-48.66-28q-2.25,2.24-4.41,4.69Z" style="fill: rgb(255, 255, 255); opacity: 0.25; transform-origin: 308.915px 155.66px;" class="animable"></path></g><g id="ellqfvkfyoj8"><path d="M272.34,157.23l42.33,24.44,4.51-11.79-39.51-22.82A115.16,115.16,0,0,0,272.34,157.23Z" style="fill: rgb(255, 255, 255); opacity: 0.25; transform-origin: 295.76px 164.365px;" class="animable"></path></g><g id="el8xlvd5j1pg8"><path d="M333.31,125.31v0a24.18,24.18,0,0,0-5.86-2.46c-.71-.19-1.44-.35-2.17-.48a29,29,0,0,0-10.94.3,35.67,35.67,0,0,0-3.95,1.06,41.48,41.48,0,0,0-4.08,1.57,49,49,0,0,0-5.23,2.68,63.12,63.12,0,0,0-5.46,3.58q-2,1.49-4,3.15c-18,15.17-32.37,41.4-37.38,67.48L321.4,241c13-15.29,22.91-36.12,26.9-56.88a105.36,105.36,0,0,0,1.53-10.71c.26-3,.4-5.9.39-8.8a75.83,75.83,0,0,0-1-12.48,54.67,54.67,0,0,0-2.52-9.64l3.55-7.42Z" style="fill: rgb(255, 255, 255); opacity: 0.4; transform-origin: 302.245px 181.494px;" class="animable"></path></g><g id="el6ne38e7undf"><path d="M285.39,270.29l3.25-6.79c.87-.19,1.74-.41,2.62-.68a47.77,47.77,0,0,0,10.23-4.53,65,65,0,0,0,6-4,77.87,77.87,0,0,0,7.38-6.29,93.36,93.36,0,0,0,6.53-7l-67.16-38.78q-.56,2.88-1,5.76t-.63,5.68c-.23,2.7-.34,5.38-.33,8,0,2.17.09,4.27.26,6.29.14,1.75.34,3.45.59,5.09s.56,3.2.91,4.72h0a45.88,45.88,0,0,0,4.52,12c.41.75.85,1.47,1.3,2.16a29,29,0,0,0,6.88,7.44,25.62,25.62,0,0,0,2.54,1.65v0Z" style="opacity: 0.1; transform-origin: 286.84px 236.255px;" class="animable"></path></g><g id="elobi7wdcazfq"><path d="M258.61,249.76c.41.75.85,1.47,1.3,2.16a29,29,0,0,0,6.88,7.44,25.62,25.62,0,0,0,2.54,1.65v0l16.06,9.26,3.25-6.79.13,0,.24-2.78L255,241A43.6,43.6,0,0,0,258.61,249.76Z" style="opacity: 0.1; transform-origin: 272.005px 255.635px;" class="animable"></path></g><path d="M365.81,161.72a51.35,51.35,0,0,0-3.64-12.39,31.8,31.8,0,0,0-9.54-12.62,24.4,24.4,0,0,0-8.57-4.24c-.71-.19-1.44-.34-2.17-.47a28.79,28.79,0,0,0-10.94.29,36.36,36.36,0,0,0-3.95,1.07,40.27,40.27,0,0,0-4.07,1.56,53.08,53.08,0,0,0-5.24,2.68,62.46,62.46,0,0,0-5.46,3.59c-1.34,1-2.68,2-4,3.14-19.3,16.29-34.48,45.32-38.33,73.24q-.41,2.87-.63,5.68-.34,4-.33,8c0,2.16.1,4.26.26,6.28.14,1.76.34,3.45.59,5.09s.56,3.21.92,4.73h0a46.08,46.08,0,0,0,4.51,12c.42.74.85,1.46,1.3,2.15a28.69,28.69,0,0,0,6.89,7.44A24.45,24.45,0,0,0,297,273.83a31.47,31.47,0,0,0,10.87-1.42,47.27,47.27,0,0,0,10.23-4.53,63.69,63.69,0,0,0,6-4,76.64,76.64,0,0,0,7.38-6.29c16.11-15.5,28.79-39.75,33.44-63.88q1-5.39,1.52-10.72c.27-3,.4-5.9.39-8.8A74.76,74.76,0,0,0,365.81,161.72Z" style="fill: rgb(186, 104, 200); transform-origin: 317.885px 202.736px;" id="elpwoed8zngq" class="animable"></path><g id="eleu0mvxjhnf"><path d="M270.87,211.78c-.37,1.93-.7,3.86-1,5.79s-.48,3.8-.63,5.68q-.34,4-.33,8c0,2.16.1,4.26.26,6.28.14,1.76.34,3.45.59,5.09s.56,3.21.92,4.73h0a46.08,46.08,0,0,0,4.51,12c.42.74.85,1.46,1.3,2.15a28.69,28.69,0,0,0,6.89,7.44A24.45,24.45,0,0,0,297,273.83a31.47,31.47,0,0,0,10.87-1.42,47.27,47.27,0,0,0,10.23-4.53c1.81-1.06,3.58-2.24,5.34-3.52Z" style="opacity: 0.05; transform-origin: 296.175px 242.821px;" class="animable"></path></g><g id="el7sxd7vcyyys"><path d="M271.63,250.76a43.39,43.39,0,0,0,3.6,8.6c.42.74.85,1.46,1.3,2.15a28.69,28.69,0,0,0,6.89,7.44,24.28,24.28,0,0,0,11,4.6Z" style="opacity: 0.05; transform-origin: 283.025px 262.155px;" class="animable"></path></g><g id="el8ad2lrotc69"><path d="M277.56,189.06c-1.57,3.94-2.94,8-4.11,12l57.26,57.26.78-.73a94.81,94.81,0,0,0,7-7.59Z" style="fill: rgb(255, 255, 255); opacity: 0.25; transform-origin: 305.97px 223.69px;" class="animable"></path></g><g id="elmleeazetaej"><path d="M296.28,156.66A114.91,114.91,0,0,0,289,166.82l63,63C354,226,355.91,222,357.59,218Z" style="fill: rgb(255, 255, 255); opacity: 0.25; transform-origin: 323.295px 193.24px;" class="animable"></path></g><g id="el0tlk6ul5nwvr"><path d="M303.43,148.74c-1.51,1.5-3,3.08-4.44,4.72l60.26,60.26c.84-2.25,1.63-4.52,2.35-6.82Z" style="fill: rgb(255, 255, 255); opacity: 0.25; transform-origin: 330.295px 181.23px;" class="animable"></path></g><g id="elys0ida45yf"><path d="M366.7,169.85h0c-.06-1.17-.16-2.31-.27-3.43,0-.37-.07-.75-.11-1.11s-.09-.76-.14-1.14c-.11-.83-.23-1.65-.37-2.45a51.35,51.35,0,0,0-3.64-12.39,31.8,31.8,0,0,0-9.54-12.62,24.4,24.4,0,0,0-8.57-4.24c-.71-.19-1.43-.34-2.17-.47a28.79,28.79,0,0,0-10.94.29c-.48.1-1,.23-1.46.35Z" style="fill: rgb(255, 255, 255); opacity: 0.25; transform-origin: 348.095px 150.73px;" class="animable"></path></g><path d="M354.37,181.69c0,25.76-15,55.51-34,68.16-.8.53-1.62,1.05-2.45,1.52-20.14,11.63-36.46-.71-36.46-27.57s16.32-58.06,36.46-69.69c.83-.47,1.65-.9,2.45-1.3C339.35,143.52,354.37,155.93,354.37,181.69Z" style="fill: rgb(186, 104, 200); transform-origin: 317.915px 202.744px;" id="ele0j0zwcff86" class="animable"></path><g id="el5f3fwze6rzo"><path d="M354.37,181.69c0,25.76-15,55.51-34,68.16-.8.53-1.62,1.05-2.45,1.52-20.14,11.63-36.46-.71-36.46-27.57s16.32-58.06,36.46-69.69c.83-.47,1.65-.9,2.45-1.3C339.35,143.52,354.37,155.93,354.37,181.69Z" style="opacity: 0.4; transform-origin: 317.915px 202.744px;" class="animable"></path></g><path d="M352.75,182.63c0,.82,0,1.66-.06,2.5-.92,24-14.91,50.94-32.46,62.62l-.47.31c-.62.4-1.24.79-1.87,1.15a30.18,30.18,0,0,1-10.94,4c-8.18,1.12-15-2.47-19.26-9.8-2.48-4.31-4.07-9.91-4.51-16.62-.09-1.26-.13-2.56-.13-3.9s0-2.47.11-3.72a71.84,71.84,0,0,1,.88-7.92c3.08-18.55,13-37.48,25.56-48.84a52.17,52.17,0,0,1,5.56-4.39c.9-.61,1.81-1.19,2.73-1.72s1.58-.87,2.34-1.25l.66-.3c5.22-2.43,10.1-3.13,14.41-2.3,7.33,1.41,13,7.26,15.69,16.6A49.09,49.09,0,0,1,352.75,182.63Z" style="fill: rgb(186, 104, 200); transform-origin: 317.901px 202.764px;" id="elaocif8knur" class="animable"></path><g id="elkkz1au48xp"><path d="M352.75,182.63c0,.82,0,1.66-.06,2.5-.92,24-14.91,50.94-32.46,62.62l-.47.31c-.62.4-1.24.79-1.87,1.15a30.18,30.18,0,0,1-10.94,4c-8.18,1.12-15-2.47-19.26-9.8-2.48-4.31-4.07-9.91-4.51-16.62-.09-1.26-.13-2.56-.13-3.9s0-2.47.11-3.72a71.84,71.84,0,0,1,.88-7.92c3.08-18.55,13-37.48,25.56-48.84a52.17,52.17,0,0,1,5.56-4.39c.9-.61,1.81-1.19,2.73-1.72s1.58-.87,2.34-1.25l.66-.3c5.22-2.43,10.1-3.13,14.41-2.3,7.33,1.41,13,7.26,15.69,16.6A49.09,49.09,0,0,1,352.75,182.63Z" style="opacity: 0.7; transform-origin: 317.901px 202.764px;" class="animable"></path></g><path d="M346.91,181.77c0-.84,0-1.68,0-2.51a49,49,0,0,0-1.75-13.59c-1.58-5.45-4.17-9.7-7.5-12.59a17.83,17.83,0,0,0-2.41-.65c-4.31-.83-9.19-.13-14.41,2.3l-.66.3c-.76.38-1.55.8-2.34,1.25s-1.83,1.11-2.73,1.72a52.17,52.17,0,0,0-5.56,4.39C297,173.75,287.12,192.68,284,211.23a71.84,71.84,0,0,0-.88,7.92c-.08,1.25-.11,2.48-.11,3.72s0,2.64.13,3.9c.44,6.71,2,12.31,4.51,16.62a21.9,21.9,0,0,0,4.59,5.64,19.07,19.07,0,0,0,8.88.8,30.41,30.41,0,0,0,10.95-4c.63-.36,1.25-.75,1.86-1.15l.48-.31C332,232.7,346,205.78,346.91,181.77Z" style="fill: rgb(186, 104, 200); transform-origin: 314.962px 201.065px;" id="elzw9a5rw68rs" class="animable"></path><g id="eldsvfazh8vrb"><path d="M346.91,181.77c0-.84,0-1.68,0-2.51a49,49,0,0,0-1.75-13.59c-1.58-5.45-4.17-9.7-7.5-12.59a17.83,17.83,0,0,0-2.41-.65c-4.31-.83-9.19-.13-14.41,2.3l-.66.3c-.76.38-1.55.8-2.34,1.25s-1.83,1.11-2.73,1.72a52.17,52.17,0,0,0-5.56,4.39C297,173.75,287.12,192.68,284,211.23a71.84,71.84,0,0,0-.88,7.92c-.08,1.25-.11,2.48-.11,3.72s0,2.64.13,3.9c.44,6.71,2,12.31,4.51,16.62a21.9,21.9,0,0,0,4.59,5.64,19.07,19.07,0,0,0,8.88.8,30.41,30.41,0,0,0,10.95-4c.63-.36,1.25-.75,1.86-1.15l.48-.31C332,232.7,346,205.78,346.91,181.77Z" style="opacity: 0.6; transform-origin: 314.962px 201.065px;" class="animable"></path></g><path d="M341.89,132a28.25,28.25,0,0,0-9.4.12,45.4,45.4,0,0,0-4.56,1.15,11.32,11.32,0,0,0-1.12.35l-1.09.43-2.2.87a53.13,53.13,0,0,0-8.24,4.51c-1.31.89-2.59,1.75-3.8,2.76s-2.52,1.94-3.64,3-2.37,2.09-3.47,3.2-2.22,2.21-3.27,3.38L298,155.28,295,159l-2.78,3.8c-.91,1.28-1.75,2.61-2.63,3.91-1.68,2.65-3.32,5.33-4.79,8.1l-1.13,2.07-1,2.11c-.7,1.41-1.42,2.8-2,4.25-1.31,2.85-2.48,5.77-3.63,8.69l-1.57,4.44c-.5,1.49-.93,3-1.4,4.5s-.82,3-1.24,4.54-.74,3-1.07,4.58l-.49,2.31-.39,2.32c-.25,1.56-.54,3.07-.68,4.65s-.37,3.14-.51,4.69-.23,3.13-.28,4.69c0,.79,0,1.57-.05,2.36s.05,1.56.07,2.34c.07,1.57.08,3.18.2,4.7l.52,4.68.87,4.64v.06h0v-.06a47.27,47.27,0,0,0,4.35,11.91c.53.9,1.05,1.85,1.63,2.73s1.22,1.74,1.89,2.56a27.38,27.38,0,0,0,4.57,4.43,27.49,27.49,0,0,1-4.68-4.34c-.69-.81-1.35-1.65-2-2.53s-1.13-1.8-1.71-2.71a46,46,0,0,1-4.62-11.92v-.07h0v.05l-.93-4.64-.59-4.71c-.15-1.62-.17-3.16-.26-4.74,0-.8-.08-1.56-.1-2.38s0-1.59,0-2.38c0-1.58.11-3.16.22-4.74s.33-3.14.49-4.72.42-3.15.67-4.7l.38-2.34.48-2.32c.32-1.55.64-3.1,1.06-4.63s.74-3.08,1.23-4.58.89-3,1.39-4.54l1.57-4.48,1.74-4.41c.56-1.48,1.27-2.9,1.9-4.35s1.36-2.86,2.06-4.27l1.06-2.13L284,174.3c1.5-2.79,3.16-5.49,4.87-8.15.88-1.31,1.74-2.64,2.66-3.93l2.82-3.82,3-3.68c1-1.2,2.11-2.36,3.17-3.53s2.24-2.25,3.35-3.38,2.35-2.11,3.52-3.17,2.47-2,3.71-2.95a45.37,45.37,0,0,1,3.88-2.75,48.79,48.79,0,0,1,8.41-4.41l2.21-.83,1.11-.41a11.1,11.1,0,0,1,1.15-.32,42.92,42.92,0,0,1,4.62-1.06A28.16,28.16,0,0,1,341.89,132Z" style="fill: rgb(245, 245, 245); transform-origin: 305.226px 200.279px;" id="ely0pvagsqtv" class="animable"></path><g style="clip-path: url(&quot;#freepik--clip-path--inject-45&quot;); transform-origin: 314.885px 203.07px;" id="el4siqim1pob" class="animable"><polygon points="309.8 165.43 315.82 168.92 324.47 163.92 318.45 160.44 309.8 165.43" style="fill: rgb(186, 104, 200); transform-origin: 317.135px 164.68px;" id="elwiqpcim02a" class="animable"></polygon><g id="el5im9i40ujg8"><polygon points="309.8 165.43 315.82 168.92 324.47 163.92 318.45 160.44 309.8 165.43" style="opacity: 0.2; transform-origin: 317.135px 164.68px;" class="animable"></polygon></g><polygon points="312.81 170.65 306.79 167.17 298.13 172.16 304.16 175.65 312.81 170.65" style="fill: rgb(186, 104, 200); transform-origin: 305.47px 171.41px;" id="ele0qcpizkes" class="animable"></polygon><g id="el90ngyft9f3"><polygon points="312.81 170.65 306.79 167.17 298.13 172.16 304.16 175.65 312.81 170.65" style="opacity: 0.2; transform-origin: 305.47px 171.41px;" class="animable"></polygon></g><polygon points="298.13 178.37 304.16 181.85 298.13 185.34 292.1 181.85 298.13 178.37" style="fill: rgb(186, 104, 200); transform-origin: 298.13px 181.855px;" id="el17ueit9jz27" class="animable"></polygon><g id="elgf8shh7vxav"><polygon points="298.13 178.37 304.16 181.85 298.13 185.34 292.1 181.85 298.13 178.37" style="opacity: 0.2; transform-origin: 298.13px 181.855px;" class="animable"></polygon></g><polygon points="292.1 193.38 298.13 196.87 298.13 185.34 292.1 181.85 292.1 193.38" style="fill: rgb(186, 104, 200); transform-origin: 295.115px 189.36px;" id="elzinxymimghb" class="animable"></polygon><g id="elh242usculv"><polygon points="292.1 193.38 298.13 196.87 298.13 185.34 292.1 181.85 292.1 193.38" style="opacity: 0.35; transform-origin: 295.115px 189.36px;" class="animable"></polygon></g><polygon points="298.13 172.16 298.13 178.37 304.16 181.85 304.16 175.65 298.13 172.16" style="fill: rgb(186, 104, 200); transform-origin: 301.145px 177.005px;" id="elkbcp20flh3i" class="animable"></polygon><g id="elnv2pduw5pw"><polygon points="298.13 172.16 298.13 178.37 304.16 181.85 304.16 175.65 298.13 172.16" style="opacity: 0.35; transform-origin: 301.145px 177.005px;" class="animable"></polygon></g><polygon points="309.8 165.43 309.8 168.91 312.81 170.65 312.81 176.86 315.82 175.12 315.82 168.92 309.8 165.43" style="fill: rgb(186, 104, 200); transform-origin: 312.81px 171.145px;" id="elkzykxzazxvf" class="animable"></polygon><g id="eletzs7yhrh6t"><polygon points="309.8 165.43 309.8 168.91 312.81 170.65 312.81 176.86 315.82 175.12 315.82 168.92 309.8 165.43" style="opacity: 0.35; transform-origin: 312.81px 171.145px;" class="animable"></polygon></g><polygon points="292.1 229.09 298.13 232.58 302.23 230.21 296.21 226.73 292.1 229.09" style="fill: rgb(186, 104, 200); transform-origin: 297.165px 229.655px;" id="elto7yhhpmqfh" class="animable"></polygon><g id="elngh4teokmhr"><polygon points="292.1 229.09 298.13 232.58 302.23 230.21 296.21 226.73 292.1 229.09" style="opacity: 0.2; transform-origin: 297.165px 229.655px;" class="animable"></polygon></g><polygon points="296.21 226.73 302.23 230.21 302.23 194.5 298.13 196.87 296.21 195.76 296.21 226.73" style="fill: rgb(186, 104, 200); transform-origin: 299.22px 212.355px;" id="el6joed950pwa" class="animable"></polygon><g id="el8knuisbcjn6"><polygon points="296.21 226.73 302.23 230.21 302.23 194.5 298.13 196.87 296.21 195.76 296.21 226.73" style="opacity: 0.45; transform-origin: 299.22px 212.355px;" class="animable"></polygon></g><polygon points="292.1 229.09 298.13 232.58 298.13 244.12 292.1 240.63 292.1 229.09" style="fill: rgb(186, 104, 200); transform-origin: 295.115px 236.605px;" id="elczznc2vpwvk" class="animable"></polygon><g id="el86682ku4kkf"><polygon points="292.1 229.09 298.13 232.58 298.13 244.12 292.1 240.63 292.1 229.09" style="opacity: 0.35; transform-origin: 295.115px 236.605px;" class="animable"></polygon></g><polygon points="304.16 240.63 304.16 245.7 299.77 243.17 304.16 240.63" style="fill: rgb(186, 104, 200); transform-origin: 301.965px 243.165px;" id="elb477m70dykg" class="animable"></polygon><g id="el6misxb1tlvd"><polygon points="304.16 240.63 304.16 245.7 299.77 243.17 304.16 240.63" style="opacity: 0.45; transform-origin: 301.965px 243.165px;" class="animable"></polygon></g><polygon points="315.82 233.9 315.82 238.97 312.81 237.23 312.81 235.64 315.82 233.9" style="fill: rgb(186, 104, 200); transform-origin: 314.315px 236.435px;" id="elben12ycyn0w" class="animable"></polygon><g id="elzy5t0hkwgio"><polygon points="315.82 233.9 315.82 238.97 312.81 237.23 312.81 235.64 315.82 233.9" style="opacity: 0.45; transform-origin: 314.315px 236.435px;" class="animable"></polygon></g><path d="M327.27,169.29a6.78,6.78,0,0,1,1.08-.1,6.48,6.48,0,0,1,3.26.75l-5.85-3.39h0a6.75,6.75,0,0,0-1.29-.57v4.21a10.88,10.88,0,0,1,1.65-.63,8.34,8.34,0,0,1,.83-.2Z" style="fill: rgb(186, 104, 200); transform-origin: 328.04px 168.085px;" id="elxgr22ljshl" class="animable"></path><g id="el60vuvcvgxz7"><path d="M327.27,169.29a6.78,6.78,0,0,1,1.08-.1,6.48,6.48,0,0,1,3.26.75l-5.85-3.39h0a6.75,6.75,0,0,0-1.29-.57v4.21a10.88,10.88,0,0,1,1.65-.63,8.34,8.34,0,0,1,.83-.2Z" style="opacity: 0.2; transform-origin: 328.04px 168.085px;" class="animable"></path></g><path d="M329,207.89v1c0,3.25-2,7-4.42,8.44l-12.14,7-1.57.9v-7l7.7-4.44c2.4-1.4,4.38-5.12,4.42-8.34l.53-.31,1.06-.62C327,203.14,329,204.65,329,207.89Z" style="fill: rgb(186, 104, 200); transform-origin: 319.935px 214.619px;" id="eloo6pkh6ofj" class="animable"></path><g id="eloh76b3fr35g"><path d="M329,207.89v1c0,3.25-2,7-4.42,8.44l-12.14,7-1.57.9v-7l7.7-4.44c2.4-1.4,4.38-5.12,4.42-8.34l.53-.31,1.06-.62C327,203.14,329,204.65,329,207.89Z" style="opacity: 0.45; transform-origin: 319.935px 214.619px;" class="animable"></path></g><path d="M327.48,185.19v.9c0,2.9-1.77,6.28-4,7.54l-12.65,7.3v-7l6.62-3.82a9.34,9.34,0,0,0,3.9-6.72l2.13-1.23C325.71,181,327.48,182.28,327.48,185.19Z" style="fill: rgb(186, 104, 200); transform-origin: 319.155px 191.332px;" id="el5hzju0xe1ye" class="animable"></path><g id="el471u40ypnjt"><path d="M327.48,185.19v.9c0,2.9-1.77,6.28-4,7.54l-12.65,7.3v-7l6.62-3.82a9.34,9.34,0,0,0,3.9-6.72l2.13-1.23C325.71,181,327.48,182.28,327.48,185.19Z" style="opacity: 0.45; transform-origin: 319.155px 191.332px;" class="animable"></path></g><path d="M333.59,192.64a29.9,29.9,0,0,0,2.54-11.54v-.91c0-8.77-5.11-13.13-11.66-10v-6.27l-8.65,5v6.2l-3,1.74v-6.21l-8.65,5v6.2l-6,3.49v11.53l4.1-2.37v35.71l-4.1,2.37v11.53l6-3.48v5.07l8.65-5v-5.07l3-1.74V239l8.65-5V228.9l.13-.07c7.2-4.16,13.07-15.36,13.07-25v-1C337.67,198.16,336.18,194.43,333.59,192.64Zm-6.11-7.45v.9c0,2.9-1.77,6.29-4,7.54l-12.65,7.31V189.51l1.57-.91,11.08-6.4C325.71,181,327.48,182.29,327.48,185.19Zm-16.6,27.28,12.65-7.3,1.07-.62c2.43-1.41,4.42.09,4.42,3.34v1c0,3.25-2,7-4.42,8.45l-12.15,7-1.57.91Z" style="fill: rgb(186, 104, 200); transform-origin: 317.92px 204.81px;" id="el0jkf8vpkh4ru" class="animable"></path><g id="eloem2fm7t1v"><path d="M324.47,170.19v-3.27l-1.9-1.9-5.81,3.36L335.42,187a27,27,0,0,0,.71-5.94v-.91c0-.58,0-1.14-.07-1.68l-9.15-9.15A10.51,10.51,0,0,0,324.47,170.19Z" style="fill: rgb(255, 255, 255); opacity: 0.3; transform-origin: 326.445px 176.01px;" class="animable"></path></g><g id="el34ok1ymda8w"><path d="M327.47,185c0,.06,0,.13,0,.2v.9c0,2.9-1.77,6.29-4,7.54l-3.11,1.8,16.12,16.12a28.8,28.8,0,0,0,1.13-7.69v-1c0-4.74-1.49-8.47-4.08-10.26.15-.36.29-.73.44-1.1Z" style="fill: rgb(255, 255, 255); opacity: 0.3; transform-origin: 328.985px 198.28px;" class="animable"></path></g><g id="elboffqg0a6x"><polygon points="314.49 223.14 312.45 224.31 310.88 225.22 310.88 219.53 302.23 210.88 302.23 226.99 312.81 237.57 312.81 235.64 315.82 233.9 315.82 238.97 324.47 233.97 324.47 233.12 314.49 223.14" style="fill: rgb(255, 255, 255); opacity: 0.3; transform-origin: 313.35px 224.925px;" class="animable"></polygon></g><g id="elm0zyiovhb18"><path d="M313.17,188.18l10.36-6a4.53,4.53,0,0,1,.8-.35l-8.51-8.51v1.78l-3,1.74v-6.21l-8.65,5v3.52Z" style="fill: rgb(255, 255, 255); opacity: 0.25; transform-origin: 314.25px 179.405px;" class="animable"></path></g><path d="M302.23,194.5v35.71c.1-1.49.15-3,.22-4.46s.09-3,.14-4.47c.09-3,.13-5.95.14-8.92s0-6,0-8.93c0-1.49-.05-3-.09-4.46l-.13-4.47,0-.42-.34.22c-1.33.86-2.67,1.69-4,2.57Z" style="fill: rgb(245, 245, 245); transform-origin: 300.452px 212.145px;" id="elfrbaeowqicq" class="animable"></path><path d="M306.47,174.65c.75-.35,1.5-.73,2.24-1.11s1.47-.79,2.19-1.2c.49-.27,1-.56,1.46-.85,0,.76.06,1.51.11,2.27,0,.51.08,1,.14,1.55s.11,1,.2,1.55v-6.21l-8.65,5h0c.39-.15.78-.32,1.16-.49S306.09,174.83,306.47,174.65Z" style="fill: rgb(245, 245, 245); transform-origin: 308.485px 173.755px;" id="el2qkc9wm28tz" class="animable"></path><path d="M318.13,167.92c.75-.36,1.5-.73,2.24-1.12,1.24-.64,2.45-1.34,3.65-2.05,0,.77.05,1.54.11,2.31,0,.52.08,1,.14,1.56s.11,1,.2,1.57h0v-6.27l-8.65,5c.39-.15.78-.32,1.16-.49S317.75,168.1,318.13,167.92Z" style="fill: rgb(245, 245, 245); transform-origin: 320.145px 167.055px;" id="elbntkwjmfu16" class="animable"></path><path d="M327.48,185.19v.9c0,2.9-1.77,6.29-4,7.54l-12.63,7.3h0l1.2-.57c.74-.38,1.83-.89,3.1-1.57s2.76-1.45,4.34-2.32l2.42-1.35,1.24-.71.62-.35a6.22,6.22,0,0,0,.65-.45,8.43,8.43,0,0,0,2-2.3,10.77,10.77,0,0,0,1.12-2.66,8.71,8.71,0,0,0,.31-2.68,8.16,8.16,0,0,0-.3-2.39,2.85,2.85,0,0,0-1.24-1.67,2.17,2.17,0,0,0-1.56-.25,3.2,3.2,0,0,0-.93.36l-.29.18h0C325.72,181,327.48,182.3,327.48,185.19Z" style="fill: rgb(245, 245, 245); transform-origin: 319.354px 191.27px;" id="elntdwg40kswq" class="animable"></path><path d="M329.39,208.63A8.38,8.38,0,0,0,329,206a3.15,3.15,0,0,0-1.39-1.8,2.36,2.36,0,0,0-1.71-.25,3.49,3.49,0,0,0-1,.39l-.33.2.08,0c2.4-1.34,4.35.15,4.35,3.37v1c0,3.25-2,7-4.42,8.45l-12.15,7-1.55.9,1.29-.63c.82-.43,2-1,3.41-1.76s3-1.6,4.77-2.56l2.66-1.49a24,24,0,0,0,2.76-1.7,11.09,11.09,0,0,0,3.28-5.5A10.08,10.08,0,0,0,329.39,208.63Z" style="fill: rgb(245, 245, 245); transform-origin: 320.138px 214.574px;" id="el9jfjqxpir3i" class="animable"></path><path d="M337.67,203.86v-1c0-4.74-1.49-8.47-4.08-10.26h0l.35.31a8.77,8.77,0,0,1,.9,1,10.87,10.87,0,0,1,1.93,4.18,15.86,15.86,0,0,1,.45,3.06,33.91,33.91,0,0,1,0,3.48,16.14,16.14,0,0,1-.15,1.82c-.07.61-.15,1.23-.27,1.85s-.23,1.25-.39,1.87-.31,1.24-.51,1.85-.37,1.23-.59,1.83-.44,1.2-.69,1.78-.5,1.16-.77,1.72A17.8,17.8,0,0,1,333,219c-.28.54-.57,1.05-.88,1.55s-.58,1-.9,1.44a30.11,30.11,0,0,1-1.86,2.5c-.64.73-1.22,1.4-1.8,1.94a20,20,0,0,1-1.51,1.36c-.91.69-1.44,1.07-1.44,1.07C331.8,224.67,337.67,213.47,337.67,203.86Z" style="fill: rgb(245, 245, 245); transform-origin: 331.14px 210.73px;" id="elzqjxj6fws7o" class="animable"></path><path d="M308.26,242.81a39.88,39.88,0,0,0-4.1,2.89l8.65-5v-5.07a38.6,38.6,0,0,0-.45,4.79Q310.26,241.54,308.26,242.81Z" style="fill: rgb(245, 245, 245); transform-origin: 308.485px 240.665px;" id="elmvgdytncxxs" class="animable"></path><path d="M324.47,228.9h0c-.23,1.61-.33,3.21-.41,4.81-1.42.72-2.8,1.51-4.15,2.35a36.16,36.16,0,0,0-4.09,2.91l8.65-5Z" style="fill: rgb(245, 245, 245); transform-origin: 320.145px 233.935px;" id="el0xfmcas5b4l" class="animable"></path></g></g><defs>     <filter id="active" height="200%">         <feMorphology in="SourceAlpha" result="DILATED" operator="dilate" radius="2"></feMorphology>                <feFlood flood-color="#32DFEC" flood-opacity="1" result="PINK"></feFlood>        <feComposite in="PINK" in2="DILATED" operator="in" result="OUTLINE"></feComposite>        <feMerge>            <feMergeNode in="OUTLINE"></feMergeNode>            <feMergeNode in="SourceGraphic"></feMergeNode>        </feMerge>    </filter>    <filter id="hover" height="200%">        <feMorphology in="SourceAlpha" result="DILATED" operator="dilate" radius="2"></feMorphology>                <feFlood flood-color="#ff0000" flood-opacity="0.5" result="PINK"></feFlood>        <feComposite in="PINK" in2="DILATED" operator="in" result="OUTLINE"></feComposite>        <feMerge>            <feMergeNode in="OUTLINE"></feMergeNode>            <feMergeNode in="SourceGraphic"></feMergeNode>        </feMerge>            <feColorMatrix type="matrix" values="0   0   0   0   0                0   1   0   0   0                0   0   0   0   0                0   0   0   1   0 "></feColorMatrix>    </filter></defs><defs><clipPath id="freepik--clip-path--inject-45"><path d="M352.75,182.63c0,.82,0,1.66-.06,2.5-.92,24-14.91,50.94-32.46,62.62l-.47.31c-.62.4-1.24.79-1.87,1.15a30.18,30.18,0,0,1-10.94,4c-8.18,1.12-15-2.47-19.26-9.8-2.48-4.31-4.07-9.91-4.51-16.62-.09-1.26-.13-2.56-.13-3.9s0-2.47.11-3.72a71.84,71.84,0,0,1,.88-7.92c3.08-18.55,13-37.48,25.56-48.84a52.17,52.17,0,0,1,5.56-4.39c.9-.61,1.81-1.19,2.73-1.72s1.58-.87,2.34-1.25l.66-.3c5.22-2.43,10.1-3.13,14.41-2.3,7.33,1.41,13,7.26,15.69,16.6A49.09,49.09,0,0,1,352.75,182.63Z" style="fill:none"></path></clipPath></defs></svg>