<svg xmlns="http://www.w3.org/2000/svg" xmlns:xlink="http://www.w3.org/1999/xlink" viewBox="0 0 173.11 173.11"><defs><style>.cls-1{fill:url(#linear-gradient);}.cls-2{fill:#fff;}.cls-3{fill:url(#linear-gradient-2);}.cls-4{fill:url(#linear-gradient-3);}</style><linearGradient id="linear-gradient" x1="86.56" y1="115.04" x2="86.56" y2="102.06" gradientUnits="userSpaceOnUse"><stop offset="0" stop-color="#b5e0da"/><stop offset="0.63" stop-color="#3cbab2"/><stop offset="0.97" stop-color="#00a89e"/><stop offset="1" stop-color="#00a69c"/></linearGradient><linearGradient id="linear-gradient-2" x1="144.02" y1="117.09" x2="144.02" y2="100.97" xlink:href="#linear-gradient"/><linearGradient id="linear-gradient-3" x1="86.56" y1="173.11" x2="86.56" y2="0" xlink:href="#linear-gradient"/></defs><g id="Layer_2" data-name="Layer 2"><g id="Layer_1-2" data-name="Layer 1"><polygon class="cls-1" points="81.39 102.06 82.5 107.52 84.55 104.79 86.56 115.04 88.56 104.79 90.61 107.52 91.72 102.06 81.39 102.06"/><path class="cls-2" d="M92,93.38V78c0-3-5.4-10.59-5.4-10.59S81.15,75,81.15,78V93.38a17.58,17.58,0,0,0-8.81,6.41h28.43A17.58,17.58,0,0,0,92,93.38Z"/><path class="cls-3" d="M152.08,109a8.06,8.06,0,1,0-8.06,8.06A8.07,8.07,0,0,0,152.08,109Zm-12.78,0a4.72,4.72,0,1,1,4.72,4.71A4.73,4.73,0,0,1,139.3,109Z"/><path class="cls-4" d="M86.56,0A86.66,86.66,0,0,0,0,86.55c0,33,20.27,59.54,47.16,61.77,16.36,1.35,32.18-4.48,42.6-9.62a65.32,65.32,0,0,0,17.16-10.39l1.12-.93h0c.84-.73,1.62-1.43,2.37-2.14,9.76-9.25,21.39-25.89,21.39-52.66V69.63L86.93,38.85,42.05,69.63v2.94c0,26.77,11.63,43.41,21.39,52.66,1.14,1.08,2.34,2.14,3.58,3.16,4.1-1.48,8.18-3,12.17-4.77C69,117,54.23,102.69,53.25,75.47L86.93,52.36,120.6,75.47c-.79,22-10.69,35.51-19.35,43.14l-1.08.83c-.26.2-26.25,19.92-52.09,17.77-16.15-1.34-29.25-14.47-34.47-32.76A9.21,9.21,0,0,0,11.18,88.2c0-.55,0-1.09,0-1.65a74.83,74.83,0,0,1,6.58-30.74,22.19,22.19,0,0,0,8.32,1.64A21.89,21.89,0,0,0,45.36,25.28c-.25-.46-.52-.89-.79-1.33a75.3,75.3,0,0,1,105.35,21.8,15.69,15.69,0,0,0,10.14,27.67c.24,0,.49,0,.73,0A75.27,75.27,0,0,1,162,86.55c0,39.1-31.11,70-75.6,75.43C50.82,166.35,28,151.58,28,151.58c13.31,14.69,31.92,21.53,58.57,21.53A86.56,86.56,0,0,0,86.56,0ZM14,98.2a5.79,5.79,0,0,1-1.33,2.62A66.54,66.54,0,0,1,11.36,92,5.85,5.85,0,0,1,14,98.2Zm28.4-71.35A18.54,18.54,0,0,1,19.16,52.78,75.92,75.92,0,0,1,41.83,25.89C42,26.2,42.23,26.52,42.41,26.85ZM160.06,70.08a12.35,12.35,0,0,1-8.36-21.45,75.2,75.2,0,0,1,8.43,21.44Z"/></g></g></svg>