<svg xmlns="http://www.w3.org/2000/svg" xmlns:xlink="http://www.w3.org/1999/xlink" width="128" height="128" fill="none" xmlns:v="https://vecta.io/nano"><path d="M121.991 22.627c-1.303-5.018-5.491-10.036-13.03-15.621C102.911 2.556 96.489 0 91.371 0c-1.024 0-1.955.095-2.885.284-2.327.473-4.374 2.178-5.677 4.734-1.582 3.03-1.955 7.101-.931 9.562.372.757.838 1.704 1.396 2.556-4.933 3.03-7.725 3.882-8.097 3.976 12.844 4.355 23.547 13.444 30.248 25.278l.093-1.136c.28-3.124 1.21-6.722 2.513-10.414 1.303.379 2.606.568 3.909.568 3.444 0 6.422-1.42 8.284-3.976s2.606-5.965 1.768-8.805z" fill="#5e12a0"/><path d="M108.59 32.094c8.47 2.367 11.913-4.261 10.796-8.71-1.21-4.45-5.119-8.994-12.006-14.107S93.512 2.082 89.045 3.029s-5.771 7.858-4.654 10.509c.465 1.041 1.489 2.556 2.885 4.26-1.768 1.231-3.444 2.177-4.84 3.03 8.563 3.882 16.009 9.941 21.593 17.515.652-2.556 1.583-4.828 2.42-6.817a10.27 10.27 0 0 1 2.141.568z" fill="url(#A)"/><path d="M60.099 124.875c28.734 0 52.028-23.695 52.028-52.923S88.833 19.029 60.099 19.029 8.072 42.723 8.072 71.952s23.293 52.923 52.028 52.923z" fill="url(#B)"/><path opacity=".6" d="M115.105 19.029c-7.073-7.574-13.03-9.562-20.197-11.172-5.584-1.325-4.095-4.544 2.699-3.882-3.258-1.136-6.329-1.42-8.563-.947-4.468.947-5.771 7.858-4.654 10.509.465 1.041 1.489 2.556 2.885 4.26a70.64 70.64 0 0 1-6.422 3.882c.838.379 1.861.852 3.072 1.515 3.164 1.704 6.608 4.544 6.608 4.544-5.212-4.544-4.095-6.627 3.072-11.74 2.234-1.609 6.329-1.42 10.144.568s8.284 7.006 8.284 7.006l-4.282 8.332.838.284c2.699.757 4.84.568 6.515-.095 1.955-1.231 7.074-5.396 0-13.065z" fill="#a98698"/><g fill="#5e12a0"><path d="M94.815 12.402c1.862.757 4.281 2.083 7.259 4.071 3.537 2.367 6.608 5.018 8.563 7.101-3.258 4.355-5.398 10.32-6.701 14.485.651.947 1.396 1.893 2.047 2.84.652-2.367 1.769-5.87 3.258-9.373.372.095.837.095 1.303.095 1.117 0 2.42-.19 3.443-1.042.745-.568 1.583-1.609 1.49-3.503 0-1.799-1.396-4.071-4.282-6.817-2.047-1.988-4.839-4.166-7.632-6.154-8.004-5.396-13.588-6.911-16.101-4.355-1.675 1.704-1.489 3.787-.931 5.302-2.978 1.988-5.491 3.408-7.166 4.355 1.117.379 2.141.852 3.258 1.325 2.978-1.61 7.259-4.355 12.192-8.331zm17.59 13.539c.28.473.373.947.373 1.231 0 .852-.28 1.136-.466 1.326-.372.284-1.117.473-1.768.473.558-1.136 1.21-2.083 1.861-3.03zM89.417 11.834c.279-.284 1.024-.473 2.234-.284-.931.757-1.862 1.42-2.792 2.083-.093-.663 0-1.325.558-1.799z"/><path d="M60.099 15.905C29.664 15.905 5 40.994 5 71.952S29.664 128 60.099 128s55.099-25.089 55.099-56.048S90.44 15.905 60.099 15.905zm0 108.971c-28.759 0-52.027-23.669-52.027-52.924s23.268-52.923 52.027-52.923 52.027 23.669 52.027 52.923-23.361 52.924-52.027 52.924z"/></g><path opacity=".6" d="M60.099 124.876c28.734 0 52.028-23.694 52.028-52.923S88.833 19.03 60.099 19.03 8.072 42.725 8.072 71.953s23.293 52.923 52.028 52.923z" fill="url(#C)"/><path opacity=".6" d="M59.727 118.438c-28.387-4.639-47.653-31.81-42.999-60.686 2.048-12.781 8.377-23.669 17.311-31.527-13.03 7.669-22.71 21.018-25.316 37.302-4.561 28.876 14.705 56.048 42.999 60.687 15.822 2.651 31.086-2.367 42.348-12.213-9.959 5.869-22.058 8.426-34.343 6.437z" fill="#a98698"/><path opacity=".6" d="M68.382 19.787c-13.123-2.177-25.874.852-36.298 7.574l-.372.379c4.002-2.462 9.866-4.639 9.866-4.639C26.5 32 21.846 42.131 21.846 42.131c5.864-11.55 23.082-19.692 36.577-20.26s22.337 3.503 33.134 12.308c10.797 8.899 17.312 27.077 16.66 41.468-.558 14.39-8.004 26.036-8.004 26.036 5.119-6.722 8.19-11.645 10.145-16.663.372-1.515.745-3.03.931-4.639 4.653-28.781-14.52-55.953-42.907-60.592z" fill="url(#D)"/><path d="M109.52 71.479c0 27.74-22.151 50.273-49.421 50.273S10.585 99.219 10.585 71.479h98.935z" fill="url(#E)"/><path opacity=".36" d="M105.611 71.479c0 27.077-21.034 49.231-47.466 50.273h1.954c27.27 0 49.421-22.533 49.421-50.273h-3.909z" fill="url(#F)"/><path opacity=".49" d="M17.565 71.479h-6.98c0 27.74 22.151 50.273 49.421 50.273 1.21 0 2.327 0 3.444-.095-25.595-1.894-45.885-23.669-45.885-50.178z" fill="url(#G)"/><path d="M109.427 71.953c0-5.775-9.866-9.088-22.989-10.225-9.493-.757-19.08.189-30.062 3.598-9.493 2.84-18.056 2.367-24.292 1.61-13.868-1.61-21.5-1.799-21.5 5.018 0 9.846 19.731 22.154 49.328 17.894 14.985-2.178 22.71-6.627 31.551-9.657 9.587-3.219 17.963-3.124 17.963-8.237z" fill="url(#H)"/><path d="M76.294 48.095c4.626 0 8.377-3.815 8.377-8.521s-3.75-8.521-8.377-8.521-8.376 3.815-8.376 8.521 3.75 8.521 8.376 8.521zm13.68 6.342c1.953 0 3.537-1.611 3.537-3.598s-1.584-3.598-3.537-3.598-3.537 1.611-3.537 3.598 1.584 3.598 3.537 3.598z" fill="#fff"/><path opacity=".36" d="M102.632 32.758h-.186c-.558-.095-.931-.663-.838-1.326.838-4.355 4.375-8.521 4.561-8.71.373-.473 1.117-.473 1.489-.095.466.379.466 1.136.093 1.515-.093.095-3.35 3.976-4.095 7.763-.093.568-.558.852-1.024.852z" fill="url(#I)"/><use xlink:href="#P" opacity=".2" fill="#fff"/><path opacity=".24" d="M55.166 110.488a2.72 2.72 0 0 1 0-3.786c.186-.19.372-.284.558-.474-.372.095-.652.284-.931.568a2.72 2.72 0 0 0 0 3.787c.838.852 2.14 1.041 3.164.473-.931.379-2.048.19-2.792-.568z" fill="url(#J)"/><g fill="#fff"><path opacity=".3" d="M57.586 108.024c.308 0 .558-.254.558-.568s-.25-.568-.558-.568-.558.255-.558.568.25.568.558.568z"/><use xlink:href="#P" x="13.589" y="-1.325" opacity=".2"/></g><path opacity=".24" d="M68.755 109.162a2.72 2.72 0 0 1 0-3.787c.186-.19.372-.284.558-.474-.372.095-.651.284-.931.568a2.72 2.72 0 0 0 0 3.787c.838.852 2.141 1.042 3.165.474a2.57 2.57 0 0 1-2.792-.568z" fill="url(#K)"/><g fill="#fff"><path opacity=".3" d="M71.175 106.699c.308 0 .558-.254.558-.568s-.25-.568-.558-.568-.558.254-.558.568.25.568.558.568z"/><path opacity=".2" d="M63.543 116.26c1.079 0 1.954-.89 1.954-1.988s-.875-1.988-1.954-1.988-1.954.89-1.954 1.988.875 1.988 1.954 1.988z"/></g><path opacity=".24" d="M62.426 115.506c-.745-.757-.745-2.083 0-2.84.093-.095.279-.189.372-.284-.279.095-.465.284-.651.473-.745.757-.745 2.083 0 2.84.651.663 1.582.758 2.42.284a2 2 0 0 1-2.141-.473z" fill="url(#L)"/><g fill="#fff"><path opacity=".3" d="M64.194 113.609c.206 0 .372-.169.372-.379s-.167-.378-.372-.378-.372.169-.372.378.167.379.372.379z"/><path opacity=".2" d="M75.548 114.84c1.079 0 1.955-.89 1.955-1.988s-.875-1.989-1.955-1.989-1.954.891-1.954 1.989.875 1.988 1.954 1.988z"/></g><path opacity=".24" d="M74.432 114.085c-.745-.757-.745-2.082 0-2.84.093-.094.279-.189.372-.284-.279.095-.465.284-.651.474-.745.757-.745 2.082 0 2.84.651.663 1.582.757 2.42.284a2 2 0 0 1-2.141-.474z" fill="url(#M)"/><g fill="#fff"><path opacity=".3" d="M76.2 112.188c.206 0 .372-.169.372-.378s-.167-.379-.372-.379-.372.17-.372.379.167.378.372.378z"/><use xlink:href="#Q" opacity=".2"/></g><path opacity=".24" d="M43.163 108.875c-1.675-1.704-1.675-4.449 0-6.153.279-.284.558-.474.931-.663-.558.189-1.024.568-1.489.947-1.675 1.704-1.675 4.449 0 6.153 1.396 1.42 3.537 1.704 5.212.663-1.582.663-3.444.379-4.654-.947z" fill="url(#N)"/><g fill="#fff"><path opacity=".3" d="M47.069 104.805a.94.94 0 0 0 .931-.947c0-.523-.417-.946-.931-.946s-.931.423-.931.946a.94.94 0 0 0 .931.947z"/><use xlink:href="#Q" x="38.255" y="-10.698" opacity=".2"/></g><path opacity=".24" d="M81.319 98.178c-1.675-1.704-1.675-4.45 0-6.154.279-.284.558-.473.931-.663-.558.189-1.024.568-1.489.947-1.675 1.704-1.675 4.45 0 6.154 1.396 1.42 3.537 1.704 5.212.663-1.582.663-3.351.379-4.654-.947z" fill="url(#O)"/><path opacity=".3" d="M85.321 94.107a.94.94 0 0 0 .931-.947.94.94 0 0 0-.931-.947.94.94 0 0 0-.931.947.94.94 0 0 0 .931.947z" fill="#fff"/><defs><radialGradient id="A" cx="0" cy="0" r="1" gradientTransform="translate(117.689 17.4197) scale(41.598 42.3142)" xlink:href="#R"><stop stop-color="#ffeaff" stop-opacity=".6"/><stop offset=".681" stop-color="#a087c9"/><stop offset="1" stop-color="#10002f"/></radialGradient><radialGradient id="B" cx="0" cy="0" r="1" gradientTransform="translate(94.5457 35.4657) scale(101.775 103.528)" xlink:href="#R"><stop stop-color="#ffeaff" stop-opacity=".6"/><stop offset=".681" stop-color="#a087c9"/><stop offset="1" stop-color="#10002f"/></radialGradient><linearGradient id="C" x1="51.754" y1="124.126" x2="68.957" y2="19.786" xlink:href="#R"><stop stop-color="#81ffff"/><stop offset=".62" stop-color="#fff" stop-opacity="0"/></linearGradient><linearGradient id="D" x1="96.765" y1="36.011" x2="53.073" y2="75.422" xlink:href="#R"><stop offset=".289" stop-color="#fff"/><stop offset=".78" stop-color="#fff" stop-opacity="0"/></linearGradient><linearGradient id="E" x1="10.626" y1="96.586" x2="109.496" y2="96.586" xlink:href="#R"><stop stop-color="#0002e9"/><stop offset=".995" stop-color="#ff00c7"/></linearGradient><linearGradient id="F" x1="114.177" y1="75.891" x2="59.496" y2="126.692" xlink:href="#R"><stop offset=".289" stop-color="#fff"/><stop offset=".78" stop-color="#fff" stop-opacity="0"/></linearGradient><linearGradient id="G" x1="10.627" y1="96.586" x2="63.522" y2="96.586" xlink:href="#R"><stop stop-color="#000292"/><stop offset=".995" stop-color="#7d00c7"/></linearGradient><linearGradient id="H" x1="10.693" y1="76.129" x2="109.43" y2="76.129" xlink:href="#R"><stop stop-color="#000292"/><stop offset=".995" stop-color="#be00c7"/></linearGradient><linearGradient id="I" x1="107.809" y1="22.261" x2="100.536" y2="33.88" xlink:href="#R"><stop offset=".289" stop-color="#fff"/><stop offset=".78" stop-color="#fff" stop-opacity="0"/></linearGradient><linearGradient id="J" x1="54.023" y1="108.866" x2="57.961" y2="108.866" xlink:href="#R"><stop offset=".289" stop-color="#fff"/><stop offset=".78" stop-color="#fff" stop-opacity="0"/></linearGradient><linearGradient id="K" x1="67.603" y1="107.521" x2="71.54" y2="107.521" xlink:href="#R"><stop offset=".289" stop-color="#fff"/><stop offset=".78" stop-color="#fff" stop-opacity="0"/></linearGradient><linearGradient id="L" x1="61.576" y1="114.298" x2="64.532" y2="114.298" xlink:href="#R"><stop offset=".289" stop-color="#fff"/><stop offset=".78" stop-color="#fff" stop-opacity="0"/></linearGradient><linearGradient id="M" x1="73.542" y1="112.874" x2="76.498" y2="112.874" xlink:href="#R"><stop offset=".289" stop-color="#fff"/><stop offset=".78" stop-color="#fff" stop-opacity="0"/></linearGradient><linearGradient id="N" x1="41.305" y1="106.241" x2="47.736" y2="106.241" xlink:href="#R"><stop offset=".289" stop-color="#fff"/><stop offset=".78" stop-color="#fff" stop-opacity="0"/></linearGradient><linearGradient id="O" x1="79.497" y1="95.54" x2="85.928" y2="95.54" xlink:href="#R"><stop offset=".289" stop-color="#fff"/><stop offset=".78" stop-color="#fff" stop-opacity="0"/></linearGradient><path id="P" d="M56.661 111.432c1.439 0 2.606-1.187 2.606-2.651s-1.167-2.651-2.606-2.651-2.606 1.187-2.606 2.651 1.167 2.651 2.606 2.651z"/><path id="Q" d="M45.58 110.485c2.364 0 4.281-1.95 4.281-4.355s-1.917-4.355-4.281-4.355-4.281 1.95-4.281 4.355 1.917 4.355 4.281 4.355z"/><linearGradient id="R" gradientUnits="userSpaceOnUse"/></defs></svg>